G04 #@! TF.FileFunction,Copper,L1,Top,Signal*
%FSLAX46Y46*%
G04 Gerber Fmt 4.6, Leading zero omitted, Abs format (unit mm)*
G04 Created by KiCad (PCBNEW 4.0.6-e0-6349~53~ubuntu14.04.1) date Thu Apr  6 14:21:28 2017*
%MOMM*%
%LPD*%
G01*
G04 APERTURE LIST*
%ADD10C,0.100000*%
%ADD11C,1.752600*%
%ADD12C,1.500000*%
%ADD13C,1.000000*%
%ADD14C,0.200000*%
G04 APERTURE END LIST*
D10*
D11*
X136710000Y-82880000D03*
X136710000Y-85420000D03*
X136710000Y-87960000D03*
X136710000Y-90500000D03*
X136710000Y-93040000D03*
X136710000Y-95580000D03*
X136710000Y-98120000D03*
X136710000Y-100660000D03*
X136710000Y-103200000D03*
X136710000Y-105740000D03*
X136710000Y-108280000D03*
X136710000Y-110820000D03*
X136710000Y-113360000D03*
X136710000Y-115900000D03*
X136710000Y-118440000D03*
X136710000Y-120980000D03*
X136710000Y-123520000D03*
X136710000Y-126060000D03*
X154490000Y-82880000D03*
X154490000Y-85420000D03*
X154490000Y-87960000D03*
X154490000Y-90500000D03*
X154490000Y-93040000D03*
X154490000Y-95580000D03*
X154490000Y-98120000D03*
X154490000Y-100660000D03*
X154490000Y-103200000D03*
X154490000Y-105740000D03*
X154490000Y-108280000D03*
X154490000Y-110820000D03*
X154490000Y-113360000D03*
X154490000Y-115900000D03*
X154490000Y-118440000D03*
X154490000Y-120980000D03*
X154490000Y-123520000D03*
X154490000Y-126060000D03*
D12*
X128000000Y-85990000D03*
X128000000Y-88530000D03*
X128000000Y-91070000D03*
X128000000Y-93610000D03*
X128000000Y-96150000D03*
X128000000Y-98690000D03*
X128000000Y-101230000D03*
X128000000Y-103770000D03*
X128000000Y-106310000D03*
X128000000Y-108850000D03*
X128000000Y-111390000D03*
X128000000Y-113930000D03*
X128000000Y-116470000D03*
X128000000Y-119010000D03*
X128000000Y-121550000D03*
X128000000Y-124090000D03*
X128000000Y-83450000D03*
X128000000Y-80910000D03*
D13*
X128000000Y-93610000D02*
X128790000Y-93610000D01*
X132120000Y-82880000D02*
X136710000Y-82880000D01*
X130000000Y-85000000D02*
X132120000Y-82880000D01*
X130000000Y-92400000D02*
X130000000Y-85000000D01*
X128790000Y-93610000D02*
X130000000Y-92400000D01*
D14*
X128000000Y-116470000D02*
X129600000Y-114870000D01*
X132240000Y-87960000D02*
X136710000Y-87960000D01*
X130800002Y-89399998D02*
X132240000Y-87960000D01*
X130800002Y-93599998D02*
X130800002Y-89399998D01*
X129600000Y-94800000D02*
X130800002Y-93599998D01*
X129600000Y-114870000D02*
X129600000Y-94800000D01*
X128000000Y-119010000D02*
X130000002Y-117009998D01*
X132300000Y-90500000D02*
X136710000Y-90500000D01*
X131600000Y-91200000D02*
X132300000Y-90500000D01*
X131600000Y-93365688D02*
X131600000Y-91200000D01*
X130000002Y-94965686D02*
X131600000Y-93365688D01*
X130000002Y-117009998D02*
X130000002Y-94965686D01*
X128000000Y-121550000D02*
X130400004Y-119149996D01*
X132200000Y-103200000D02*
X136710000Y-103200000D01*
X130400004Y-104999996D02*
X132200000Y-103200000D01*
X130400004Y-119149996D02*
X130400004Y-104999996D01*
X128000000Y-124090000D02*
X130800006Y-121289994D01*
X132460000Y-105740000D02*
X136710000Y-105740000D01*
X130800006Y-107399994D02*
X132460000Y-105740000D01*
X130800006Y-121289994D02*
X130800006Y-107399994D01*
G36*
X138037220Y-79410142D02*
X138068774Y-79431225D01*
X138089859Y-79462781D01*
X138112590Y-79577060D01*
X138188710Y-79959743D01*
X138247689Y-80102133D01*
X138464462Y-80426557D01*
X138518953Y-80481047D01*
X138573443Y-80535538D01*
X138897867Y-80752310D01*
X139040256Y-80811290D01*
X139040257Y-80811290D01*
X139422940Y-80887410D01*
X139461843Y-80887410D01*
X139500000Y-80895000D01*
X157961098Y-80895000D01*
X158228561Y-80948201D01*
X158422327Y-81077671D01*
X158551799Y-81271440D01*
X158605000Y-81538902D01*
X158605000Y-128961098D01*
X158551799Y-129228560D01*
X158422327Y-129422329D01*
X158228561Y-129551799D01*
X157961098Y-129605000D01*
X128038903Y-129605000D01*
X127388755Y-129475677D01*
X126870565Y-129129435D01*
X126524323Y-128611245D01*
X126395000Y-127961096D01*
X126395000Y-126296915D01*
X135513493Y-126296915D01*
X135695235Y-126736764D01*
X136031466Y-127073583D01*
X136470997Y-127256092D01*
X136946915Y-127256507D01*
X137386764Y-127074765D01*
X137723583Y-126738534D01*
X137906092Y-126299003D01*
X137906093Y-126296915D01*
X153293493Y-126296915D01*
X153475235Y-126736764D01*
X153811466Y-127073583D01*
X154250997Y-127256092D01*
X154726915Y-127256507D01*
X155166764Y-127074765D01*
X155503583Y-126738534D01*
X155686092Y-126299003D01*
X155686507Y-125823085D01*
X155504765Y-125383236D01*
X155168534Y-125046417D01*
X154729003Y-124863908D01*
X154253085Y-124863493D01*
X153813236Y-125045235D01*
X153476417Y-125381466D01*
X153293908Y-125820997D01*
X153293493Y-126296915D01*
X137906093Y-126296915D01*
X137906507Y-125823085D01*
X137724765Y-125383236D01*
X137388534Y-125046417D01*
X136949003Y-124863908D01*
X136473085Y-124863493D01*
X136033236Y-125045235D01*
X135696417Y-125381466D01*
X135513908Y-125820997D01*
X135513493Y-126296915D01*
X126395000Y-126296915D01*
X126395000Y-114141902D01*
X126929814Y-114141902D01*
X127092369Y-114535315D01*
X127393102Y-114836573D01*
X127786230Y-114999814D01*
X128211902Y-115000186D01*
X128605315Y-114837631D01*
X128906573Y-114536898D01*
X129069814Y-114143770D01*
X129070186Y-113718098D01*
X128907631Y-113324685D01*
X128606898Y-113023427D01*
X128213770Y-112860186D01*
X127788098Y-112859814D01*
X127394685Y-113022369D01*
X127093427Y-113323102D01*
X126930186Y-113716230D01*
X126929814Y-114141902D01*
X126395000Y-114141902D01*
X126395000Y-111601902D01*
X126929814Y-111601902D01*
X127092369Y-111995315D01*
X127393102Y-112296573D01*
X127786230Y-112459814D01*
X128211902Y-112460186D01*
X128605315Y-112297631D01*
X128906573Y-111996898D01*
X129069814Y-111603770D01*
X129070186Y-111178098D01*
X128907631Y-110784685D01*
X128606898Y-110483427D01*
X128213770Y-110320186D01*
X127788098Y-110319814D01*
X127394685Y-110482369D01*
X127093427Y-110783102D01*
X126930186Y-111176230D01*
X126929814Y-111601902D01*
X126395000Y-111601902D01*
X126395000Y-109061902D01*
X126929814Y-109061902D01*
X127092369Y-109455315D01*
X127393102Y-109756573D01*
X127786230Y-109919814D01*
X128211902Y-109920186D01*
X128605315Y-109757631D01*
X128906573Y-109456898D01*
X129069814Y-109063770D01*
X129070186Y-108638098D01*
X128907631Y-108244685D01*
X128606898Y-107943427D01*
X128213770Y-107780186D01*
X127788098Y-107779814D01*
X127394685Y-107942369D01*
X127093427Y-108243102D01*
X126930186Y-108636230D01*
X126929814Y-109061902D01*
X126395000Y-109061902D01*
X126395000Y-106521902D01*
X126929814Y-106521902D01*
X127092369Y-106915315D01*
X127393102Y-107216573D01*
X127786230Y-107379814D01*
X128211902Y-107380186D01*
X128605315Y-107217631D01*
X128906573Y-106916898D01*
X129069814Y-106523770D01*
X129070186Y-106098098D01*
X128907631Y-105704685D01*
X128606898Y-105403427D01*
X128213770Y-105240186D01*
X127788098Y-105239814D01*
X127394685Y-105402369D01*
X127093427Y-105703102D01*
X126930186Y-106096230D01*
X126929814Y-106521902D01*
X126395000Y-106521902D01*
X126395000Y-103981902D01*
X126929814Y-103981902D01*
X127092369Y-104375315D01*
X127393102Y-104676573D01*
X127786230Y-104839814D01*
X128211902Y-104840186D01*
X128605315Y-104677631D01*
X128906573Y-104376898D01*
X129069814Y-103983770D01*
X129070186Y-103558098D01*
X128907631Y-103164685D01*
X128606898Y-102863427D01*
X128213770Y-102700186D01*
X127788098Y-102699814D01*
X127394685Y-102862369D01*
X127093427Y-103163102D01*
X126930186Y-103556230D01*
X126929814Y-103981902D01*
X126395000Y-103981902D01*
X126395000Y-101441902D01*
X126929814Y-101441902D01*
X127092369Y-101835315D01*
X127393102Y-102136573D01*
X127786230Y-102299814D01*
X128211902Y-102300186D01*
X128605315Y-102137631D01*
X128906573Y-101836898D01*
X129069814Y-101443770D01*
X129070186Y-101018098D01*
X128907631Y-100624685D01*
X128606898Y-100323427D01*
X128213770Y-100160186D01*
X127788098Y-100159814D01*
X127394685Y-100322369D01*
X127093427Y-100623102D01*
X126930186Y-101016230D01*
X126929814Y-101441902D01*
X126395000Y-101441902D01*
X126395000Y-99302553D01*
X127422802Y-99302553D01*
X127511032Y-99405539D01*
X127822078Y-99538192D01*
X128160210Y-99541715D01*
X128473952Y-99415573D01*
X128488968Y-99405539D01*
X128577198Y-99302553D01*
X128000000Y-98725355D01*
X127422802Y-99302553D01*
X126395000Y-99302553D01*
X126395000Y-98850210D01*
X127148285Y-98850210D01*
X127274427Y-99163952D01*
X127284461Y-99178968D01*
X127387447Y-99267198D01*
X127964645Y-98690000D01*
X128035355Y-98690000D01*
X128612553Y-99267198D01*
X128715539Y-99178968D01*
X128848192Y-98867922D01*
X128851715Y-98529790D01*
X128725573Y-98216048D01*
X128715539Y-98201032D01*
X128612553Y-98112802D01*
X128035355Y-98690000D01*
X127964645Y-98690000D01*
X127387447Y-98112802D01*
X127284461Y-98201032D01*
X127151808Y-98512078D01*
X127148285Y-98850210D01*
X126395000Y-98850210D01*
X126395000Y-98077447D01*
X127422802Y-98077447D01*
X128000000Y-98654645D01*
X128577198Y-98077447D01*
X128488968Y-97974461D01*
X128177922Y-97841808D01*
X127839790Y-97838285D01*
X127526048Y-97964427D01*
X127511032Y-97974461D01*
X127422802Y-98077447D01*
X126395000Y-98077447D01*
X126395000Y-96361902D01*
X126929814Y-96361902D01*
X127092369Y-96755315D01*
X127393102Y-97056573D01*
X127786230Y-97219814D01*
X128211902Y-97220186D01*
X128605315Y-97057631D01*
X128906573Y-96756898D01*
X129069814Y-96363770D01*
X129070186Y-95938098D01*
X128907631Y-95544685D01*
X128606898Y-95243427D01*
X128213770Y-95080186D01*
X127788098Y-95079814D01*
X127394685Y-95242369D01*
X127093427Y-95543102D01*
X126930186Y-95936230D01*
X126929814Y-96361902D01*
X126395000Y-96361902D01*
X126395000Y-93821902D01*
X126929814Y-93821902D01*
X127092369Y-94215315D01*
X127393102Y-94516573D01*
X127786230Y-94679814D01*
X128211902Y-94680186D01*
X128605315Y-94517631D01*
X128693099Y-94430000D01*
X128789995Y-94430000D01*
X128790000Y-94430001D01*
X129103801Y-94367581D01*
X129369828Y-94189828D01*
X130380002Y-93179653D01*
X130380002Y-93426028D01*
X129303015Y-94503015D01*
X129211971Y-94639273D01*
X129180000Y-94800000D01*
X129180000Y-114696030D01*
X128398950Y-115477080D01*
X128213770Y-115400186D01*
X127788098Y-115399814D01*
X127394685Y-115562369D01*
X127093427Y-115863102D01*
X126930186Y-116256230D01*
X126929814Y-116681902D01*
X127092369Y-117075315D01*
X127393102Y-117376573D01*
X127786230Y-117539814D01*
X128211902Y-117540186D01*
X128605315Y-117377631D01*
X128906573Y-117076898D01*
X129069814Y-116683770D01*
X129070186Y-116258098D01*
X128992905Y-116071065D01*
X129580002Y-115483968D01*
X129580002Y-116836028D01*
X128398950Y-118017080D01*
X128213770Y-117940186D01*
X127788098Y-117939814D01*
X127394685Y-118102369D01*
X127093427Y-118403102D01*
X126930186Y-118796230D01*
X126929814Y-119221902D01*
X127092369Y-119615315D01*
X127393102Y-119916573D01*
X127786230Y-120079814D01*
X128211902Y-120080186D01*
X128605315Y-119917631D01*
X128906573Y-119616898D01*
X129069814Y-119223770D01*
X129070186Y-118798098D01*
X128992905Y-118611065D01*
X129980004Y-117623966D01*
X129980004Y-118976026D01*
X128398950Y-120557080D01*
X128213770Y-120480186D01*
X127788098Y-120479814D01*
X127394685Y-120642369D01*
X127093427Y-120943102D01*
X126930186Y-121336230D01*
X126929814Y-121761902D01*
X127092369Y-122155315D01*
X127393102Y-122456573D01*
X127786230Y-122619814D01*
X128211902Y-122620186D01*
X128605315Y-122457631D01*
X128906573Y-122156898D01*
X129069814Y-121763770D01*
X129070186Y-121338098D01*
X128992905Y-121151065D01*
X130380006Y-119763964D01*
X130380006Y-121116024D01*
X128398950Y-123097080D01*
X128213770Y-123020186D01*
X127788098Y-123019814D01*
X127394685Y-123182369D01*
X127093427Y-123483102D01*
X126930186Y-123876230D01*
X126929814Y-124301902D01*
X127092369Y-124695315D01*
X127393102Y-124996573D01*
X127786230Y-125159814D01*
X128211902Y-125160186D01*
X128605315Y-124997631D01*
X128906573Y-124696898D01*
X129069814Y-124303770D01*
X129070186Y-123878098D01*
X129020114Y-123756915D01*
X135513493Y-123756915D01*
X135695235Y-124196764D01*
X136031466Y-124533583D01*
X136470997Y-124716092D01*
X136946915Y-124716507D01*
X137386764Y-124534765D01*
X137723583Y-124198534D01*
X137906092Y-123759003D01*
X137906093Y-123756915D01*
X153293493Y-123756915D01*
X153475235Y-124196764D01*
X153811466Y-124533583D01*
X154250997Y-124716092D01*
X154726915Y-124716507D01*
X155166764Y-124534765D01*
X155503583Y-124198534D01*
X155686092Y-123759003D01*
X155686507Y-123283085D01*
X155504765Y-122843236D01*
X155168534Y-122506417D01*
X154729003Y-122323908D01*
X154253085Y-122323493D01*
X153813236Y-122505235D01*
X153476417Y-122841466D01*
X153293908Y-123280997D01*
X153293493Y-123756915D01*
X137906093Y-123756915D01*
X137906507Y-123283085D01*
X137724765Y-122843236D01*
X137388534Y-122506417D01*
X136949003Y-122323908D01*
X136473085Y-122323493D01*
X136033236Y-122505235D01*
X135696417Y-122841466D01*
X135513908Y-123280997D01*
X135513493Y-123756915D01*
X129020114Y-123756915D01*
X128992905Y-123691065D01*
X131096991Y-121586979D01*
X131188035Y-121450721D01*
X131220006Y-121289994D01*
X131220006Y-121216915D01*
X135513493Y-121216915D01*
X135695235Y-121656764D01*
X136031466Y-121993583D01*
X136470997Y-122176092D01*
X136946915Y-122176507D01*
X137386764Y-121994765D01*
X137723583Y-121658534D01*
X137906092Y-121219003D01*
X137906093Y-121216915D01*
X153293493Y-121216915D01*
X153475235Y-121656764D01*
X153811466Y-121993583D01*
X154250997Y-122176092D01*
X154726915Y-122176507D01*
X155166764Y-121994765D01*
X155503583Y-121658534D01*
X155686092Y-121219003D01*
X155686507Y-120743085D01*
X155504765Y-120303236D01*
X155168534Y-119966417D01*
X154729003Y-119783908D01*
X154253085Y-119783493D01*
X153813236Y-119965235D01*
X153476417Y-120301466D01*
X153293908Y-120740997D01*
X153293493Y-121216915D01*
X137906093Y-121216915D01*
X137906507Y-120743085D01*
X137724765Y-120303236D01*
X137388534Y-119966417D01*
X136949003Y-119783908D01*
X136473085Y-119783493D01*
X136033236Y-119965235D01*
X135696417Y-120301466D01*
X135513908Y-120740997D01*
X135513493Y-121216915D01*
X131220006Y-121216915D01*
X131220006Y-118676915D01*
X135513493Y-118676915D01*
X135695235Y-119116764D01*
X136031466Y-119453583D01*
X136470997Y-119636092D01*
X136946915Y-119636507D01*
X137386764Y-119454765D01*
X137723583Y-119118534D01*
X137906092Y-118679003D01*
X137906093Y-118676915D01*
X153293493Y-118676915D01*
X153475235Y-119116764D01*
X153811466Y-119453583D01*
X154250997Y-119636092D01*
X154726915Y-119636507D01*
X155166764Y-119454765D01*
X155503583Y-119118534D01*
X155686092Y-118679003D01*
X155686507Y-118203085D01*
X155504765Y-117763236D01*
X155168534Y-117426417D01*
X154729003Y-117243908D01*
X154253085Y-117243493D01*
X153813236Y-117425235D01*
X153476417Y-117761466D01*
X153293908Y-118200997D01*
X153293493Y-118676915D01*
X137906093Y-118676915D01*
X137906507Y-118203085D01*
X137724765Y-117763236D01*
X137388534Y-117426417D01*
X136949003Y-117243908D01*
X136473085Y-117243493D01*
X136033236Y-117425235D01*
X135696417Y-117761466D01*
X135513908Y-118200997D01*
X135513493Y-118676915D01*
X131220006Y-118676915D01*
X131220006Y-116136915D01*
X135513493Y-116136915D01*
X135695235Y-116576764D01*
X136031466Y-116913583D01*
X136470997Y-117096092D01*
X136946915Y-117096507D01*
X137386764Y-116914765D01*
X137723583Y-116578534D01*
X137906092Y-116139003D01*
X137906093Y-116136915D01*
X153293493Y-116136915D01*
X153475235Y-116576764D01*
X153811466Y-116913583D01*
X154250997Y-117096092D01*
X154726915Y-117096507D01*
X155166764Y-116914765D01*
X155503583Y-116578534D01*
X155686092Y-116139003D01*
X155686507Y-115663085D01*
X155504765Y-115223236D01*
X155168534Y-114886417D01*
X154729003Y-114703908D01*
X154253085Y-114703493D01*
X153813236Y-114885235D01*
X153476417Y-115221466D01*
X153293908Y-115660997D01*
X153293493Y-116136915D01*
X137906093Y-116136915D01*
X137906507Y-115663085D01*
X137724765Y-115223236D01*
X137388534Y-114886417D01*
X136949003Y-114703908D01*
X136473085Y-114703493D01*
X136033236Y-114885235D01*
X135696417Y-115221466D01*
X135513908Y-115660997D01*
X135513493Y-116136915D01*
X131220006Y-116136915D01*
X131220006Y-113596915D01*
X135513493Y-113596915D01*
X135695235Y-114036764D01*
X136031466Y-114373583D01*
X136470997Y-114556092D01*
X136946915Y-114556507D01*
X137386764Y-114374765D01*
X137723583Y-114038534D01*
X137906092Y-113599003D01*
X137906093Y-113596915D01*
X153293493Y-113596915D01*
X153475235Y-114036764D01*
X153811466Y-114373583D01*
X154250997Y-114556092D01*
X154726915Y-114556507D01*
X155166764Y-114374765D01*
X155503583Y-114038534D01*
X155686092Y-113599003D01*
X155686507Y-113123085D01*
X155504765Y-112683236D01*
X155168534Y-112346417D01*
X154729003Y-112163908D01*
X154253085Y-112163493D01*
X153813236Y-112345235D01*
X153476417Y-112681466D01*
X153293908Y-113120997D01*
X153293493Y-113596915D01*
X137906093Y-113596915D01*
X137906507Y-113123085D01*
X137724765Y-112683236D01*
X137388534Y-112346417D01*
X136949003Y-112163908D01*
X136473085Y-112163493D01*
X136033236Y-112345235D01*
X135696417Y-112681466D01*
X135513908Y-113120997D01*
X135513493Y-113596915D01*
X131220006Y-113596915D01*
X131220006Y-111056915D01*
X135513493Y-111056915D01*
X135695235Y-111496764D01*
X136031466Y-111833583D01*
X136470997Y-112016092D01*
X136946915Y-112016507D01*
X137386764Y-111834765D01*
X137723583Y-111498534D01*
X137906092Y-111059003D01*
X137906093Y-111056915D01*
X153293493Y-111056915D01*
X153475235Y-111496764D01*
X153811466Y-111833583D01*
X154250997Y-112016092D01*
X154726915Y-112016507D01*
X155166764Y-111834765D01*
X155503583Y-111498534D01*
X155686092Y-111059003D01*
X155686507Y-110583085D01*
X155504765Y-110143236D01*
X155168534Y-109806417D01*
X154729003Y-109623908D01*
X154253085Y-109623493D01*
X153813236Y-109805235D01*
X153476417Y-110141466D01*
X153293908Y-110580997D01*
X153293493Y-111056915D01*
X137906093Y-111056915D01*
X137906507Y-110583085D01*
X137724765Y-110143236D01*
X137388534Y-109806417D01*
X136949003Y-109623908D01*
X136473085Y-109623493D01*
X136033236Y-109805235D01*
X135696417Y-110141466D01*
X135513908Y-110580997D01*
X135513493Y-111056915D01*
X131220006Y-111056915D01*
X131220006Y-108516915D01*
X135513493Y-108516915D01*
X135695235Y-108956764D01*
X136031466Y-109293583D01*
X136470997Y-109476092D01*
X136946915Y-109476507D01*
X137386764Y-109294765D01*
X137723583Y-108958534D01*
X137906092Y-108519003D01*
X137906093Y-108516915D01*
X153293493Y-108516915D01*
X153475235Y-108956764D01*
X153811466Y-109293583D01*
X154250997Y-109476092D01*
X154726915Y-109476507D01*
X155166764Y-109294765D01*
X155503583Y-108958534D01*
X155686092Y-108519003D01*
X155686507Y-108043085D01*
X155504765Y-107603236D01*
X155168534Y-107266417D01*
X154729003Y-107083908D01*
X154253085Y-107083493D01*
X153813236Y-107265235D01*
X153476417Y-107601466D01*
X153293908Y-108040997D01*
X153293493Y-108516915D01*
X137906093Y-108516915D01*
X137906507Y-108043085D01*
X137724765Y-107603236D01*
X137388534Y-107266417D01*
X136949003Y-107083908D01*
X136473085Y-107083493D01*
X136033236Y-107265235D01*
X135696417Y-107601466D01*
X135513908Y-108040997D01*
X135513493Y-108516915D01*
X131220006Y-108516915D01*
X131220006Y-107573964D01*
X132633970Y-106160000D01*
X135589142Y-106160000D01*
X135695235Y-106416764D01*
X136031466Y-106753583D01*
X136470997Y-106936092D01*
X136946915Y-106936507D01*
X137386764Y-106754765D01*
X137723583Y-106418534D01*
X137906092Y-105979003D01*
X137906093Y-105976915D01*
X153293493Y-105976915D01*
X153475235Y-106416764D01*
X153811466Y-106753583D01*
X154250997Y-106936092D01*
X154726915Y-106936507D01*
X155166764Y-106754765D01*
X155503583Y-106418534D01*
X155686092Y-105979003D01*
X155686507Y-105503085D01*
X155504765Y-105063236D01*
X155168534Y-104726417D01*
X154729003Y-104543908D01*
X154253085Y-104543493D01*
X153813236Y-104725235D01*
X153476417Y-105061466D01*
X153293908Y-105500997D01*
X153293493Y-105976915D01*
X137906093Y-105976915D01*
X137906507Y-105503085D01*
X137724765Y-105063236D01*
X137388534Y-104726417D01*
X136949003Y-104543908D01*
X136473085Y-104543493D01*
X136033236Y-104725235D01*
X135696417Y-105061466D01*
X135589064Y-105320000D01*
X132460000Y-105320000D01*
X132299273Y-105351971D01*
X132163015Y-105443015D01*
X130820004Y-106786026D01*
X130820004Y-105173966D01*
X132373970Y-103620000D01*
X135589142Y-103620000D01*
X135695235Y-103876764D01*
X136031466Y-104213583D01*
X136470997Y-104396092D01*
X136946915Y-104396507D01*
X137386764Y-104214765D01*
X137723583Y-103878534D01*
X137906092Y-103439003D01*
X137906093Y-103436915D01*
X153293493Y-103436915D01*
X153475235Y-103876764D01*
X153811466Y-104213583D01*
X154250997Y-104396092D01*
X154726915Y-104396507D01*
X155166764Y-104214765D01*
X155503583Y-103878534D01*
X155686092Y-103439003D01*
X155686507Y-102963085D01*
X155504765Y-102523236D01*
X155168534Y-102186417D01*
X154729003Y-102003908D01*
X154253085Y-102003493D01*
X153813236Y-102185235D01*
X153476417Y-102521466D01*
X153293908Y-102960997D01*
X153293493Y-103436915D01*
X137906093Y-103436915D01*
X137906507Y-102963085D01*
X137724765Y-102523236D01*
X137388534Y-102186417D01*
X136949003Y-102003908D01*
X136473085Y-102003493D01*
X136033236Y-102185235D01*
X135696417Y-102521466D01*
X135589064Y-102780000D01*
X132200000Y-102780000D01*
X132039273Y-102811971D01*
X131903015Y-102903015D01*
X130420002Y-104386028D01*
X130420002Y-100896915D01*
X135513493Y-100896915D01*
X135695235Y-101336764D01*
X136031466Y-101673583D01*
X136470997Y-101856092D01*
X136946915Y-101856507D01*
X137386764Y-101674765D01*
X137723583Y-101338534D01*
X137906092Y-100899003D01*
X137906093Y-100896915D01*
X153293493Y-100896915D01*
X153475235Y-101336764D01*
X153811466Y-101673583D01*
X154250997Y-101856092D01*
X154726915Y-101856507D01*
X155166764Y-101674765D01*
X155503583Y-101338534D01*
X155686092Y-100899003D01*
X155686507Y-100423085D01*
X155504765Y-99983236D01*
X155168534Y-99646417D01*
X154729003Y-99463908D01*
X154253085Y-99463493D01*
X153813236Y-99645235D01*
X153476417Y-99981466D01*
X153293908Y-100420997D01*
X153293493Y-100896915D01*
X137906093Y-100896915D01*
X137906507Y-100423085D01*
X137724765Y-99983236D01*
X137388534Y-99646417D01*
X136949003Y-99463908D01*
X136473085Y-99463493D01*
X136033236Y-99645235D01*
X135696417Y-99981466D01*
X135513908Y-100420997D01*
X135513493Y-100896915D01*
X130420002Y-100896915D01*
X130420002Y-98356915D01*
X135513493Y-98356915D01*
X135695235Y-98796764D01*
X136031466Y-99133583D01*
X136470997Y-99316092D01*
X136946915Y-99316507D01*
X137386764Y-99134765D01*
X137723583Y-98798534D01*
X137906092Y-98359003D01*
X137906093Y-98356915D01*
X153293493Y-98356915D01*
X153475235Y-98796764D01*
X153811466Y-99133583D01*
X154250997Y-99316092D01*
X154726915Y-99316507D01*
X155166764Y-99134765D01*
X155503583Y-98798534D01*
X155686092Y-98359003D01*
X155686507Y-97883085D01*
X155504765Y-97443236D01*
X155168534Y-97106417D01*
X154729003Y-96923908D01*
X154253085Y-96923493D01*
X153813236Y-97105235D01*
X153476417Y-97441466D01*
X153293908Y-97880997D01*
X153293493Y-98356915D01*
X137906093Y-98356915D01*
X137906507Y-97883085D01*
X137724765Y-97443236D01*
X137388534Y-97106417D01*
X136949003Y-96923908D01*
X136473085Y-96923493D01*
X136033236Y-97105235D01*
X135696417Y-97441466D01*
X135513908Y-97880997D01*
X135513493Y-98356915D01*
X130420002Y-98356915D01*
X130420002Y-95816915D01*
X135513493Y-95816915D01*
X135695235Y-96256764D01*
X136031466Y-96593583D01*
X136470997Y-96776092D01*
X136946915Y-96776507D01*
X137386764Y-96594765D01*
X137723583Y-96258534D01*
X137906092Y-95819003D01*
X137906093Y-95816915D01*
X153293493Y-95816915D01*
X153475235Y-96256764D01*
X153811466Y-96593583D01*
X154250997Y-96776092D01*
X154726915Y-96776507D01*
X155166764Y-96594765D01*
X155503583Y-96258534D01*
X155686092Y-95819003D01*
X155686507Y-95343085D01*
X155504765Y-94903236D01*
X155168534Y-94566417D01*
X154729003Y-94383908D01*
X154253085Y-94383493D01*
X153813236Y-94565235D01*
X153476417Y-94901466D01*
X153293908Y-95340997D01*
X153293493Y-95816915D01*
X137906093Y-95816915D01*
X137906507Y-95343085D01*
X137724765Y-94903236D01*
X137388534Y-94566417D01*
X136949003Y-94383908D01*
X136473085Y-94383493D01*
X136033236Y-94565235D01*
X135696417Y-94901466D01*
X135513908Y-95340997D01*
X135513493Y-95816915D01*
X130420002Y-95816915D01*
X130420002Y-95139656D01*
X131896985Y-93662673D01*
X131988029Y-93526415D01*
X132020000Y-93365688D01*
X132020000Y-93276915D01*
X135513493Y-93276915D01*
X135695235Y-93716764D01*
X136031466Y-94053583D01*
X136470997Y-94236092D01*
X136946915Y-94236507D01*
X137386764Y-94054765D01*
X137723583Y-93718534D01*
X137906092Y-93279003D01*
X137906093Y-93276915D01*
X153293493Y-93276915D01*
X153475235Y-93716764D01*
X153811466Y-94053583D01*
X154250997Y-94236092D01*
X154726915Y-94236507D01*
X155166764Y-94054765D01*
X155503583Y-93718534D01*
X155686092Y-93279003D01*
X155686507Y-92803085D01*
X155504765Y-92363236D01*
X155168534Y-92026417D01*
X154729003Y-91843908D01*
X154253085Y-91843493D01*
X153813236Y-92025235D01*
X153476417Y-92361466D01*
X153293908Y-92800997D01*
X153293493Y-93276915D01*
X137906093Y-93276915D01*
X137906507Y-92803085D01*
X137724765Y-92363236D01*
X137388534Y-92026417D01*
X136949003Y-91843908D01*
X136473085Y-91843493D01*
X136033236Y-92025235D01*
X135696417Y-92361466D01*
X135513908Y-92800997D01*
X135513493Y-93276915D01*
X132020000Y-93276915D01*
X132020000Y-91373970D01*
X132473969Y-90920000D01*
X135589142Y-90920000D01*
X135695235Y-91176764D01*
X136031466Y-91513583D01*
X136470997Y-91696092D01*
X136946915Y-91696507D01*
X137386764Y-91514765D01*
X137698428Y-91203645D01*
X153821710Y-91203645D01*
X153925312Y-91319758D01*
X154282005Y-91473454D01*
X154670362Y-91478951D01*
X155031261Y-91335411D01*
X155054688Y-91319758D01*
X155158290Y-91203645D01*
X154490000Y-90535355D01*
X153821710Y-91203645D01*
X137698428Y-91203645D01*
X137723583Y-91178534D01*
X137906092Y-90739003D01*
X137906143Y-90680362D01*
X153511049Y-90680362D01*
X153654589Y-91041261D01*
X153670242Y-91064688D01*
X153786355Y-91168290D01*
X154454645Y-90500000D01*
X154525355Y-90500000D01*
X155193645Y-91168290D01*
X155309758Y-91064688D01*
X155463454Y-90707995D01*
X155468951Y-90319638D01*
X155325411Y-89958739D01*
X155309758Y-89935312D01*
X155193645Y-89831710D01*
X154525355Y-90500000D01*
X154454645Y-90500000D01*
X153786355Y-89831710D01*
X153670242Y-89935312D01*
X153516546Y-90292005D01*
X153511049Y-90680362D01*
X137906143Y-90680362D01*
X137906507Y-90263085D01*
X137724765Y-89823236D01*
X137697931Y-89796355D01*
X153821710Y-89796355D01*
X154490000Y-90464645D01*
X155158290Y-89796355D01*
X155054688Y-89680242D01*
X154697995Y-89526546D01*
X154309638Y-89521049D01*
X153948739Y-89664589D01*
X153925312Y-89680242D01*
X153821710Y-89796355D01*
X137697931Y-89796355D01*
X137388534Y-89486417D01*
X136949003Y-89303908D01*
X136473085Y-89303493D01*
X136033236Y-89485235D01*
X135696417Y-89821466D01*
X135589064Y-90080000D01*
X132300000Y-90080000D01*
X132139273Y-90111971D01*
X132003015Y-90203015D01*
X132003013Y-90203018D01*
X131303015Y-90903015D01*
X131220002Y-91027254D01*
X131220002Y-89573968D01*
X132413970Y-88380000D01*
X135589142Y-88380000D01*
X135695235Y-88636764D01*
X136031466Y-88973583D01*
X136470997Y-89156092D01*
X136946915Y-89156507D01*
X137386764Y-88974765D01*
X137723583Y-88638534D01*
X137906092Y-88199003D01*
X137906093Y-88196915D01*
X153293493Y-88196915D01*
X153475235Y-88636764D01*
X153811466Y-88973583D01*
X154250997Y-89156092D01*
X154726915Y-89156507D01*
X155166764Y-88974765D01*
X155503583Y-88638534D01*
X155686092Y-88199003D01*
X155686507Y-87723085D01*
X155504765Y-87283236D01*
X155168534Y-86946417D01*
X154729003Y-86763908D01*
X154253085Y-86763493D01*
X153813236Y-86945235D01*
X153476417Y-87281466D01*
X153293908Y-87720997D01*
X153293493Y-88196915D01*
X137906093Y-88196915D01*
X137906507Y-87723085D01*
X137724765Y-87283236D01*
X137388534Y-86946417D01*
X136949003Y-86763908D01*
X136473085Y-86763493D01*
X136033236Y-86945235D01*
X135696417Y-87281466D01*
X135589064Y-87540000D01*
X132240000Y-87540000D01*
X132079273Y-87571971D01*
X131943015Y-87663015D01*
X130820000Y-88786030D01*
X130820000Y-86123645D01*
X136041710Y-86123645D01*
X136145312Y-86239758D01*
X136502005Y-86393454D01*
X136890362Y-86398951D01*
X137251261Y-86255411D01*
X137274688Y-86239758D01*
X137378290Y-86123645D01*
X136710000Y-85455355D01*
X136041710Y-86123645D01*
X130820000Y-86123645D01*
X130820000Y-85600362D01*
X135731049Y-85600362D01*
X135874589Y-85961261D01*
X135890242Y-85984688D01*
X136006355Y-86088290D01*
X136674645Y-85420000D01*
X136745355Y-85420000D01*
X137413645Y-86088290D01*
X137529758Y-85984688D01*
X137670992Y-85656915D01*
X153293493Y-85656915D01*
X153475235Y-86096764D01*
X153811466Y-86433583D01*
X154250997Y-86616092D01*
X154726915Y-86616507D01*
X155166764Y-86434765D01*
X155503583Y-86098534D01*
X155686092Y-85659003D01*
X155686507Y-85183085D01*
X155504765Y-84743236D01*
X155168534Y-84406417D01*
X154729003Y-84223908D01*
X154253085Y-84223493D01*
X153813236Y-84405235D01*
X153476417Y-84741466D01*
X153293908Y-85180997D01*
X153293493Y-85656915D01*
X137670992Y-85656915D01*
X137683454Y-85627995D01*
X137688951Y-85239638D01*
X137545411Y-84878739D01*
X137529758Y-84855312D01*
X137413645Y-84751710D01*
X136745355Y-85420000D01*
X136674645Y-85420000D01*
X136006355Y-84751710D01*
X135890242Y-84855312D01*
X135736546Y-85212005D01*
X135731049Y-85600362D01*
X130820000Y-85600362D01*
X130820000Y-85339656D01*
X131443300Y-84716355D01*
X136041710Y-84716355D01*
X136710000Y-85384645D01*
X137378290Y-84716355D01*
X137274688Y-84600242D01*
X136917995Y-84446546D01*
X136529638Y-84441049D01*
X136168739Y-84584589D01*
X136145312Y-84600242D01*
X136041710Y-84716355D01*
X131443300Y-84716355D01*
X132459655Y-83700000D01*
X135838221Y-83700000D01*
X136031466Y-83893583D01*
X136470997Y-84076092D01*
X136946915Y-84076507D01*
X137386764Y-83894765D01*
X137723583Y-83558534D01*
X137906092Y-83119003D01*
X137906093Y-83116915D01*
X153293493Y-83116915D01*
X153475235Y-83556764D01*
X153811466Y-83893583D01*
X154250997Y-84076092D01*
X154726915Y-84076507D01*
X155166764Y-83894765D01*
X155503583Y-83558534D01*
X155686092Y-83119003D01*
X155686507Y-82643085D01*
X155504765Y-82203236D01*
X155168534Y-81866417D01*
X154729003Y-81683908D01*
X154253085Y-81683493D01*
X153813236Y-81865235D01*
X153476417Y-82201466D01*
X153293908Y-82640997D01*
X153293493Y-83116915D01*
X137906093Y-83116915D01*
X137906507Y-82643085D01*
X137724765Y-82203236D01*
X137388534Y-81866417D01*
X136949003Y-81683908D01*
X136473085Y-81683493D01*
X136033236Y-81865235D01*
X135838130Y-82060000D01*
X132120005Y-82060000D01*
X132120000Y-82059999D01*
X131806200Y-82122419D01*
X131540172Y-82300172D01*
X131540170Y-82300175D01*
X129420172Y-84420172D01*
X129242419Y-84686199D01*
X129179999Y-85000000D01*
X129180000Y-85000005D01*
X129180000Y-92060345D01*
X128557450Y-92682894D01*
X128213770Y-92540186D01*
X127788098Y-92539814D01*
X127394685Y-92702369D01*
X127093427Y-93003102D01*
X126930186Y-93396230D01*
X126929814Y-93821902D01*
X126395000Y-93821902D01*
X126395000Y-91281902D01*
X126929814Y-91281902D01*
X127092369Y-91675315D01*
X127393102Y-91976573D01*
X127786230Y-92139814D01*
X128211902Y-92140186D01*
X128605315Y-91977631D01*
X128906573Y-91676898D01*
X129069814Y-91283770D01*
X129070186Y-90858098D01*
X128907631Y-90464685D01*
X128606898Y-90163427D01*
X128213770Y-90000186D01*
X127788098Y-89999814D01*
X127394685Y-90162369D01*
X127093427Y-90463102D01*
X126930186Y-90856230D01*
X126929814Y-91281902D01*
X126395000Y-91281902D01*
X126395000Y-88741902D01*
X126929814Y-88741902D01*
X127092369Y-89135315D01*
X127393102Y-89436573D01*
X127786230Y-89599814D01*
X128211902Y-89600186D01*
X128605315Y-89437631D01*
X128906573Y-89136898D01*
X129069814Y-88743770D01*
X129070186Y-88318098D01*
X128907631Y-87924685D01*
X128606898Y-87623427D01*
X128213770Y-87460186D01*
X127788098Y-87459814D01*
X127394685Y-87622369D01*
X127093427Y-87923102D01*
X126930186Y-88316230D01*
X126929814Y-88741902D01*
X126395000Y-88741902D01*
X126395000Y-86602553D01*
X127422802Y-86602553D01*
X127511032Y-86705539D01*
X127822078Y-86838192D01*
X128160210Y-86841715D01*
X128473952Y-86715573D01*
X128488968Y-86705539D01*
X128577198Y-86602553D01*
X128000000Y-86025355D01*
X127422802Y-86602553D01*
X126395000Y-86602553D01*
X126395000Y-86150210D01*
X127148285Y-86150210D01*
X127274427Y-86463952D01*
X127284461Y-86478968D01*
X127387447Y-86567198D01*
X127964645Y-85990000D01*
X128035355Y-85990000D01*
X128612553Y-86567198D01*
X128715539Y-86478968D01*
X128848192Y-86167922D01*
X128851715Y-85829790D01*
X128725573Y-85516048D01*
X128715539Y-85501032D01*
X128612553Y-85412802D01*
X128035355Y-85990000D01*
X127964645Y-85990000D01*
X127387447Y-85412802D01*
X127284461Y-85501032D01*
X127151808Y-85812078D01*
X127148285Y-86150210D01*
X126395000Y-86150210D01*
X126395000Y-85377447D01*
X127422802Y-85377447D01*
X128000000Y-85954645D01*
X128577198Y-85377447D01*
X128488968Y-85274461D01*
X128177922Y-85141808D01*
X127839790Y-85138285D01*
X127526048Y-85264427D01*
X127511032Y-85274461D01*
X127422802Y-85377447D01*
X126395000Y-85377447D01*
X126395000Y-83661902D01*
X126929814Y-83661902D01*
X127092369Y-84055315D01*
X127393102Y-84356573D01*
X127786230Y-84519814D01*
X128211902Y-84520186D01*
X128605315Y-84357631D01*
X128906573Y-84056898D01*
X129069814Y-83663770D01*
X129070186Y-83238098D01*
X128907631Y-82844685D01*
X128606898Y-82543427D01*
X128213770Y-82380186D01*
X127788098Y-82379814D01*
X127394685Y-82542369D01*
X127093427Y-82843102D01*
X126930186Y-83236230D01*
X126929814Y-83661902D01*
X126395000Y-83661902D01*
X126395000Y-81121902D01*
X126929814Y-81121902D01*
X127092369Y-81515315D01*
X127393102Y-81816573D01*
X127786230Y-81979814D01*
X128211902Y-81980186D01*
X128605315Y-81817631D01*
X128906573Y-81516898D01*
X129069814Y-81123770D01*
X129070186Y-80698098D01*
X128907631Y-80304685D01*
X128606898Y-80003427D01*
X128213770Y-79840186D01*
X127788098Y-79839814D01*
X127394685Y-80002369D01*
X127093427Y-80303102D01*
X126930186Y-80696230D01*
X126929814Y-81121902D01*
X126395000Y-81121902D01*
X126395000Y-81038904D01*
X126524323Y-80388755D01*
X126870565Y-79870565D01*
X127388755Y-79524323D01*
X128038903Y-79395000D01*
X137961098Y-79395000D01*
X138037220Y-79410142D01*
X138037220Y-79410142D01*
G37*
X138037220Y-79410142D02*
X138068774Y-79431225D01*
X138089859Y-79462781D01*
X138112590Y-79577060D01*
X138188710Y-79959743D01*
X138247689Y-80102133D01*
X138464462Y-80426557D01*
X138518953Y-80481047D01*
X138573443Y-80535538D01*
X138897867Y-80752310D01*
X139040256Y-80811290D01*
X139040257Y-80811290D01*
X139422940Y-80887410D01*
X139461843Y-80887410D01*
X139500000Y-80895000D01*
X157961098Y-80895000D01*
X158228561Y-80948201D01*
X158422327Y-81077671D01*
X158551799Y-81271440D01*
X158605000Y-81538902D01*
X158605000Y-128961098D01*
X158551799Y-129228560D01*
X158422327Y-129422329D01*
X158228561Y-129551799D01*
X157961098Y-129605000D01*
X128038903Y-129605000D01*
X127388755Y-129475677D01*
X126870565Y-129129435D01*
X126524323Y-128611245D01*
X126395000Y-127961096D01*
X126395000Y-126296915D01*
X135513493Y-126296915D01*
X135695235Y-126736764D01*
X136031466Y-127073583D01*
X136470997Y-127256092D01*
X136946915Y-127256507D01*
X137386764Y-127074765D01*
X137723583Y-126738534D01*
X137906092Y-126299003D01*
X137906093Y-126296915D01*
X153293493Y-126296915D01*
X153475235Y-126736764D01*
X153811466Y-127073583D01*
X154250997Y-127256092D01*
X154726915Y-127256507D01*
X155166764Y-127074765D01*
X155503583Y-126738534D01*
X155686092Y-126299003D01*
X155686507Y-125823085D01*
X155504765Y-125383236D01*
X155168534Y-125046417D01*
X154729003Y-124863908D01*
X154253085Y-124863493D01*
X153813236Y-125045235D01*
X153476417Y-125381466D01*
X153293908Y-125820997D01*
X153293493Y-126296915D01*
X137906093Y-126296915D01*
X137906507Y-125823085D01*
X137724765Y-125383236D01*
X137388534Y-125046417D01*
X136949003Y-124863908D01*
X136473085Y-124863493D01*
X136033236Y-125045235D01*
X135696417Y-125381466D01*
X135513908Y-125820997D01*
X135513493Y-126296915D01*
X126395000Y-126296915D01*
X126395000Y-114141902D01*
X126929814Y-114141902D01*
X127092369Y-114535315D01*
X127393102Y-114836573D01*
X127786230Y-114999814D01*
X128211902Y-115000186D01*
X128605315Y-114837631D01*
X128906573Y-114536898D01*
X129069814Y-114143770D01*
X129070186Y-113718098D01*
X128907631Y-113324685D01*
X128606898Y-113023427D01*
X128213770Y-112860186D01*
X127788098Y-112859814D01*
X127394685Y-113022369D01*
X127093427Y-113323102D01*
X126930186Y-113716230D01*
X126929814Y-114141902D01*
X126395000Y-114141902D01*
X126395000Y-111601902D01*
X126929814Y-111601902D01*
X127092369Y-111995315D01*
X127393102Y-112296573D01*
X127786230Y-112459814D01*
X128211902Y-112460186D01*
X128605315Y-112297631D01*
X128906573Y-111996898D01*
X129069814Y-111603770D01*
X129070186Y-111178098D01*
X128907631Y-110784685D01*
X128606898Y-110483427D01*
X128213770Y-110320186D01*
X127788098Y-110319814D01*
X127394685Y-110482369D01*
X127093427Y-110783102D01*
X126930186Y-111176230D01*
X126929814Y-111601902D01*
X126395000Y-111601902D01*
X126395000Y-109061902D01*
X126929814Y-109061902D01*
X127092369Y-109455315D01*
X127393102Y-109756573D01*
X127786230Y-109919814D01*
X128211902Y-109920186D01*
X128605315Y-109757631D01*
X128906573Y-109456898D01*
X129069814Y-109063770D01*
X129070186Y-108638098D01*
X128907631Y-108244685D01*
X128606898Y-107943427D01*
X128213770Y-107780186D01*
X127788098Y-107779814D01*
X127394685Y-107942369D01*
X127093427Y-108243102D01*
X126930186Y-108636230D01*
X126929814Y-109061902D01*
X126395000Y-109061902D01*
X126395000Y-106521902D01*
X126929814Y-106521902D01*
X127092369Y-106915315D01*
X127393102Y-107216573D01*
X127786230Y-107379814D01*
X128211902Y-107380186D01*
X128605315Y-107217631D01*
X128906573Y-106916898D01*
X129069814Y-106523770D01*
X129070186Y-106098098D01*
X128907631Y-105704685D01*
X128606898Y-105403427D01*
X128213770Y-105240186D01*
X127788098Y-105239814D01*
X127394685Y-105402369D01*
X127093427Y-105703102D01*
X126930186Y-106096230D01*
X126929814Y-106521902D01*
X126395000Y-106521902D01*
X126395000Y-103981902D01*
X126929814Y-103981902D01*
X127092369Y-104375315D01*
X127393102Y-104676573D01*
X127786230Y-104839814D01*
X128211902Y-104840186D01*
X128605315Y-104677631D01*
X128906573Y-104376898D01*
X129069814Y-103983770D01*
X129070186Y-103558098D01*
X128907631Y-103164685D01*
X128606898Y-102863427D01*
X128213770Y-102700186D01*
X127788098Y-102699814D01*
X127394685Y-102862369D01*
X127093427Y-103163102D01*
X126930186Y-103556230D01*
X126929814Y-103981902D01*
X126395000Y-103981902D01*
X126395000Y-101441902D01*
X126929814Y-101441902D01*
X127092369Y-101835315D01*
X127393102Y-102136573D01*
X127786230Y-102299814D01*
X128211902Y-102300186D01*
X128605315Y-102137631D01*
X128906573Y-101836898D01*
X129069814Y-101443770D01*
X129070186Y-101018098D01*
X128907631Y-100624685D01*
X128606898Y-100323427D01*
X128213770Y-100160186D01*
X127788098Y-100159814D01*
X127394685Y-100322369D01*
X127093427Y-100623102D01*
X126930186Y-101016230D01*
X126929814Y-101441902D01*
X126395000Y-101441902D01*
X126395000Y-99302553D01*
X127422802Y-99302553D01*
X127511032Y-99405539D01*
X127822078Y-99538192D01*
X128160210Y-99541715D01*
X128473952Y-99415573D01*
X128488968Y-99405539D01*
X128577198Y-99302553D01*
X128000000Y-98725355D01*
X127422802Y-99302553D01*
X126395000Y-99302553D01*
X126395000Y-98850210D01*
X127148285Y-98850210D01*
X127274427Y-99163952D01*
X127284461Y-99178968D01*
X127387447Y-99267198D01*
X127964645Y-98690000D01*
X128035355Y-98690000D01*
X128612553Y-99267198D01*
X128715539Y-99178968D01*
X128848192Y-98867922D01*
X128851715Y-98529790D01*
X128725573Y-98216048D01*
X128715539Y-98201032D01*
X128612553Y-98112802D01*
X128035355Y-98690000D01*
X127964645Y-98690000D01*
X127387447Y-98112802D01*
X127284461Y-98201032D01*
X127151808Y-98512078D01*
X127148285Y-98850210D01*
X126395000Y-98850210D01*
X126395000Y-98077447D01*
X127422802Y-98077447D01*
X128000000Y-98654645D01*
X128577198Y-98077447D01*
X128488968Y-97974461D01*
X128177922Y-97841808D01*
X127839790Y-97838285D01*
X127526048Y-97964427D01*
X127511032Y-97974461D01*
X127422802Y-98077447D01*
X126395000Y-98077447D01*
X126395000Y-96361902D01*
X126929814Y-96361902D01*
X127092369Y-96755315D01*
X127393102Y-97056573D01*
X127786230Y-97219814D01*
X128211902Y-97220186D01*
X128605315Y-97057631D01*
X128906573Y-96756898D01*
X129069814Y-96363770D01*
X129070186Y-95938098D01*
X128907631Y-95544685D01*
X128606898Y-95243427D01*
X128213770Y-95080186D01*
X127788098Y-95079814D01*
X127394685Y-95242369D01*
X127093427Y-95543102D01*
X126930186Y-95936230D01*
X126929814Y-96361902D01*
X126395000Y-96361902D01*
X126395000Y-93821902D01*
X126929814Y-93821902D01*
X127092369Y-94215315D01*
X127393102Y-94516573D01*
X127786230Y-94679814D01*
X128211902Y-94680186D01*
X128605315Y-94517631D01*
X128693099Y-94430000D01*
X128789995Y-94430000D01*
X128790000Y-94430001D01*
X129103801Y-94367581D01*
X129369828Y-94189828D01*
X130380002Y-93179653D01*
X130380002Y-93426028D01*
X129303015Y-94503015D01*
X129211971Y-94639273D01*
X129180000Y-94800000D01*
X129180000Y-114696030D01*
X128398950Y-115477080D01*
X128213770Y-115400186D01*
X127788098Y-115399814D01*
X127394685Y-115562369D01*
X127093427Y-115863102D01*
X126930186Y-116256230D01*
X126929814Y-116681902D01*
X127092369Y-117075315D01*
X127393102Y-117376573D01*
X127786230Y-117539814D01*
X128211902Y-117540186D01*
X128605315Y-117377631D01*
X128906573Y-117076898D01*
X129069814Y-116683770D01*
X129070186Y-116258098D01*
X128992905Y-116071065D01*
X129580002Y-115483968D01*
X129580002Y-116836028D01*
X128398950Y-118017080D01*
X128213770Y-117940186D01*
X127788098Y-117939814D01*
X127394685Y-118102369D01*
X127093427Y-118403102D01*
X126930186Y-118796230D01*
X126929814Y-119221902D01*
X127092369Y-119615315D01*
X127393102Y-119916573D01*
X127786230Y-120079814D01*
X128211902Y-120080186D01*
X128605315Y-119917631D01*
X128906573Y-119616898D01*
X129069814Y-119223770D01*
X129070186Y-118798098D01*
X128992905Y-118611065D01*
X129980004Y-117623966D01*
X129980004Y-118976026D01*
X128398950Y-120557080D01*
X128213770Y-120480186D01*
X127788098Y-120479814D01*
X127394685Y-120642369D01*
X127093427Y-120943102D01*
X126930186Y-121336230D01*
X126929814Y-121761902D01*
X127092369Y-122155315D01*
X127393102Y-122456573D01*
X127786230Y-122619814D01*
X128211902Y-122620186D01*
X128605315Y-122457631D01*
X128906573Y-122156898D01*
X129069814Y-121763770D01*
X129070186Y-121338098D01*
X128992905Y-121151065D01*
X130380006Y-119763964D01*
X130380006Y-121116024D01*
X128398950Y-123097080D01*
X128213770Y-123020186D01*
X127788098Y-123019814D01*
X127394685Y-123182369D01*
X127093427Y-123483102D01*
X126930186Y-123876230D01*
X126929814Y-124301902D01*
X127092369Y-124695315D01*
X127393102Y-124996573D01*
X127786230Y-125159814D01*
X128211902Y-125160186D01*
X128605315Y-124997631D01*
X128906573Y-124696898D01*
X129069814Y-124303770D01*
X129070186Y-123878098D01*
X129020114Y-123756915D01*
X135513493Y-123756915D01*
X135695235Y-124196764D01*
X136031466Y-124533583D01*
X136470997Y-124716092D01*
X136946915Y-124716507D01*
X137386764Y-124534765D01*
X137723583Y-124198534D01*
X137906092Y-123759003D01*
X137906093Y-123756915D01*
X153293493Y-123756915D01*
X153475235Y-124196764D01*
X153811466Y-124533583D01*
X154250997Y-124716092D01*
X154726915Y-124716507D01*
X155166764Y-124534765D01*
X155503583Y-124198534D01*
X155686092Y-123759003D01*
X155686507Y-123283085D01*
X155504765Y-122843236D01*
X155168534Y-122506417D01*
X154729003Y-122323908D01*
X154253085Y-122323493D01*
X153813236Y-122505235D01*
X153476417Y-122841466D01*
X153293908Y-123280997D01*
X153293493Y-123756915D01*
X137906093Y-123756915D01*
X137906507Y-123283085D01*
X137724765Y-122843236D01*
X137388534Y-122506417D01*
X136949003Y-122323908D01*
X136473085Y-122323493D01*
X136033236Y-122505235D01*
X135696417Y-122841466D01*
X135513908Y-123280997D01*
X135513493Y-123756915D01*
X129020114Y-123756915D01*
X128992905Y-123691065D01*
X131096991Y-121586979D01*
X131188035Y-121450721D01*
X131220006Y-121289994D01*
X131220006Y-121216915D01*
X135513493Y-121216915D01*
X135695235Y-121656764D01*
X136031466Y-121993583D01*
X136470997Y-122176092D01*
X136946915Y-122176507D01*
X137386764Y-121994765D01*
X137723583Y-121658534D01*
X137906092Y-121219003D01*
X137906093Y-121216915D01*
X153293493Y-121216915D01*
X153475235Y-121656764D01*
X153811466Y-121993583D01*
X154250997Y-122176092D01*
X154726915Y-122176507D01*
X155166764Y-121994765D01*
X155503583Y-121658534D01*
X155686092Y-121219003D01*
X155686507Y-120743085D01*
X155504765Y-120303236D01*
X155168534Y-119966417D01*
X154729003Y-119783908D01*
X154253085Y-119783493D01*
X153813236Y-119965235D01*
X153476417Y-120301466D01*
X153293908Y-120740997D01*
X153293493Y-121216915D01*
X137906093Y-121216915D01*
X137906507Y-120743085D01*
X137724765Y-120303236D01*
X137388534Y-119966417D01*
X136949003Y-119783908D01*
X136473085Y-119783493D01*
X136033236Y-119965235D01*
X135696417Y-120301466D01*
X135513908Y-120740997D01*
X135513493Y-121216915D01*
X131220006Y-121216915D01*
X131220006Y-118676915D01*
X135513493Y-118676915D01*
X135695235Y-119116764D01*
X136031466Y-119453583D01*
X136470997Y-119636092D01*
X136946915Y-119636507D01*
X137386764Y-119454765D01*
X137723583Y-119118534D01*
X137906092Y-118679003D01*
X137906093Y-118676915D01*
X153293493Y-118676915D01*
X153475235Y-119116764D01*
X153811466Y-119453583D01*
X154250997Y-119636092D01*
X154726915Y-119636507D01*
X155166764Y-119454765D01*
X155503583Y-119118534D01*
X155686092Y-118679003D01*
X155686507Y-118203085D01*
X155504765Y-117763236D01*
X155168534Y-117426417D01*
X154729003Y-117243908D01*
X154253085Y-117243493D01*
X153813236Y-117425235D01*
X153476417Y-117761466D01*
X153293908Y-118200997D01*
X153293493Y-118676915D01*
X137906093Y-118676915D01*
X137906507Y-118203085D01*
X137724765Y-117763236D01*
X137388534Y-117426417D01*
X136949003Y-117243908D01*
X136473085Y-117243493D01*
X136033236Y-117425235D01*
X135696417Y-117761466D01*
X135513908Y-118200997D01*
X135513493Y-118676915D01*
X131220006Y-118676915D01*
X131220006Y-116136915D01*
X135513493Y-116136915D01*
X135695235Y-116576764D01*
X136031466Y-116913583D01*
X136470997Y-117096092D01*
X136946915Y-117096507D01*
X137386764Y-116914765D01*
X137723583Y-116578534D01*
X137906092Y-116139003D01*
X137906093Y-116136915D01*
X153293493Y-116136915D01*
X153475235Y-116576764D01*
X153811466Y-116913583D01*
X154250997Y-117096092D01*
X154726915Y-117096507D01*
X155166764Y-116914765D01*
X155503583Y-116578534D01*
X155686092Y-116139003D01*
X155686507Y-115663085D01*
X155504765Y-115223236D01*
X155168534Y-114886417D01*
X154729003Y-114703908D01*
X154253085Y-114703493D01*
X153813236Y-114885235D01*
X153476417Y-115221466D01*
X153293908Y-115660997D01*
X153293493Y-116136915D01*
X137906093Y-116136915D01*
X137906507Y-115663085D01*
X137724765Y-115223236D01*
X137388534Y-114886417D01*
X136949003Y-114703908D01*
X136473085Y-114703493D01*
X136033236Y-114885235D01*
X135696417Y-115221466D01*
X135513908Y-115660997D01*
X135513493Y-116136915D01*
X131220006Y-116136915D01*
X131220006Y-113596915D01*
X135513493Y-113596915D01*
X135695235Y-114036764D01*
X136031466Y-114373583D01*
X136470997Y-114556092D01*
X136946915Y-114556507D01*
X137386764Y-114374765D01*
X137723583Y-114038534D01*
X137906092Y-113599003D01*
X137906093Y-113596915D01*
X153293493Y-113596915D01*
X153475235Y-114036764D01*
X153811466Y-114373583D01*
X154250997Y-114556092D01*
X154726915Y-114556507D01*
X155166764Y-114374765D01*
X155503583Y-114038534D01*
X155686092Y-113599003D01*
X155686507Y-113123085D01*
X155504765Y-112683236D01*
X155168534Y-112346417D01*
X154729003Y-112163908D01*
X154253085Y-112163493D01*
X153813236Y-112345235D01*
X153476417Y-112681466D01*
X153293908Y-113120997D01*
X153293493Y-113596915D01*
X137906093Y-113596915D01*
X137906507Y-113123085D01*
X137724765Y-112683236D01*
X137388534Y-112346417D01*
X136949003Y-112163908D01*
X136473085Y-112163493D01*
X136033236Y-112345235D01*
X135696417Y-112681466D01*
X135513908Y-113120997D01*
X135513493Y-113596915D01*
X131220006Y-113596915D01*
X131220006Y-111056915D01*
X135513493Y-111056915D01*
X135695235Y-111496764D01*
X136031466Y-111833583D01*
X136470997Y-112016092D01*
X136946915Y-112016507D01*
X137386764Y-111834765D01*
X137723583Y-111498534D01*
X137906092Y-111059003D01*
X137906093Y-111056915D01*
X153293493Y-111056915D01*
X153475235Y-111496764D01*
X153811466Y-111833583D01*
X154250997Y-112016092D01*
X154726915Y-112016507D01*
X155166764Y-111834765D01*
X155503583Y-111498534D01*
X155686092Y-111059003D01*
X155686507Y-110583085D01*
X155504765Y-110143236D01*
X155168534Y-109806417D01*
X154729003Y-109623908D01*
X154253085Y-109623493D01*
X153813236Y-109805235D01*
X153476417Y-110141466D01*
X153293908Y-110580997D01*
X153293493Y-111056915D01*
X137906093Y-111056915D01*
X137906507Y-110583085D01*
X137724765Y-110143236D01*
X137388534Y-109806417D01*
X136949003Y-109623908D01*
X136473085Y-109623493D01*
X136033236Y-109805235D01*
X135696417Y-110141466D01*
X135513908Y-110580997D01*
X135513493Y-111056915D01*
X131220006Y-111056915D01*
X131220006Y-108516915D01*
X135513493Y-108516915D01*
X135695235Y-108956764D01*
X136031466Y-109293583D01*
X136470997Y-109476092D01*
X136946915Y-109476507D01*
X137386764Y-109294765D01*
X137723583Y-108958534D01*
X137906092Y-108519003D01*
X137906093Y-108516915D01*
X153293493Y-108516915D01*
X153475235Y-108956764D01*
X153811466Y-109293583D01*
X154250997Y-109476092D01*
X154726915Y-109476507D01*
X155166764Y-109294765D01*
X155503583Y-108958534D01*
X155686092Y-108519003D01*
X155686507Y-108043085D01*
X155504765Y-107603236D01*
X155168534Y-107266417D01*
X154729003Y-107083908D01*
X154253085Y-107083493D01*
X153813236Y-107265235D01*
X153476417Y-107601466D01*
X153293908Y-108040997D01*
X153293493Y-108516915D01*
X137906093Y-108516915D01*
X137906507Y-108043085D01*
X137724765Y-107603236D01*
X137388534Y-107266417D01*
X136949003Y-107083908D01*
X136473085Y-107083493D01*
X136033236Y-107265235D01*
X135696417Y-107601466D01*
X135513908Y-108040997D01*
X135513493Y-108516915D01*
X131220006Y-108516915D01*
X131220006Y-107573964D01*
X132633970Y-106160000D01*
X135589142Y-106160000D01*
X135695235Y-106416764D01*
X136031466Y-106753583D01*
X136470997Y-106936092D01*
X136946915Y-106936507D01*
X137386764Y-106754765D01*
X137723583Y-106418534D01*
X137906092Y-105979003D01*
X137906093Y-105976915D01*
X153293493Y-105976915D01*
X153475235Y-106416764D01*
X153811466Y-106753583D01*
X154250997Y-106936092D01*
X154726915Y-106936507D01*
X155166764Y-106754765D01*
X155503583Y-106418534D01*
X155686092Y-105979003D01*
X155686507Y-105503085D01*
X155504765Y-105063236D01*
X155168534Y-104726417D01*
X154729003Y-104543908D01*
X154253085Y-104543493D01*
X153813236Y-104725235D01*
X153476417Y-105061466D01*
X153293908Y-105500997D01*
X153293493Y-105976915D01*
X137906093Y-105976915D01*
X137906507Y-105503085D01*
X137724765Y-105063236D01*
X137388534Y-104726417D01*
X136949003Y-104543908D01*
X136473085Y-104543493D01*
X136033236Y-104725235D01*
X135696417Y-105061466D01*
X135589064Y-105320000D01*
X132460000Y-105320000D01*
X132299273Y-105351971D01*
X132163015Y-105443015D01*
X130820004Y-106786026D01*
X130820004Y-105173966D01*
X132373970Y-103620000D01*
X135589142Y-103620000D01*
X135695235Y-103876764D01*
X136031466Y-104213583D01*
X136470997Y-104396092D01*
X136946915Y-104396507D01*
X137386764Y-104214765D01*
X137723583Y-103878534D01*
X137906092Y-103439003D01*
X137906093Y-103436915D01*
X153293493Y-103436915D01*
X153475235Y-103876764D01*
X153811466Y-104213583D01*
X154250997Y-104396092D01*
X154726915Y-104396507D01*
X155166764Y-104214765D01*
X155503583Y-103878534D01*
X155686092Y-103439003D01*
X155686507Y-102963085D01*
X155504765Y-102523236D01*
X155168534Y-102186417D01*
X154729003Y-102003908D01*
X154253085Y-102003493D01*
X153813236Y-102185235D01*
X153476417Y-102521466D01*
X153293908Y-102960997D01*
X153293493Y-103436915D01*
X137906093Y-103436915D01*
X137906507Y-102963085D01*
X137724765Y-102523236D01*
X137388534Y-102186417D01*
X136949003Y-102003908D01*
X136473085Y-102003493D01*
X136033236Y-102185235D01*
X135696417Y-102521466D01*
X135589064Y-102780000D01*
X132200000Y-102780000D01*
X132039273Y-102811971D01*
X131903015Y-102903015D01*
X130420002Y-104386028D01*
X130420002Y-100896915D01*
X135513493Y-100896915D01*
X135695235Y-101336764D01*
X136031466Y-101673583D01*
X136470997Y-101856092D01*
X136946915Y-101856507D01*
X137386764Y-101674765D01*
X137723583Y-101338534D01*
X137906092Y-100899003D01*
X137906093Y-100896915D01*
X153293493Y-100896915D01*
X153475235Y-101336764D01*
X153811466Y-101673583D01*
X154250997Y-101856092D01*
X154726915Y-101856507D01*
X155166764Y-101674765D01*
X155503583Y-101338534D01*
X155686092Y-100899003D01*
X155686507Y-100423085D01*
X155504765Y-99983236D01*
X155168534Y-99646417D01*
X154729003Y-99463908D01*
X154253085Y-99463493D01*
X153813236Y-99645235D01*
X153476417Y-99981466D01*
X153293908Y-100420997D01*
X153293493Y-100896915D01*
X137906093Y-100896915D01*
X137906507Y-100423085D01*
X137724765Y-99983236D01*
X137388534Y-99646417D01*
X136949003Y-99463908D01*
X136473085Y-99463493D01*
X136033236Y-99645235D01*
X135696417Y-99981466D01*
X135513908Y-100420997D01*
X135513493Y-100896915D01*
X130420002Y-100896915D01*
X130420002Y-98356915D01*
X135513493Y-98356915D01*
X135695235Y-98796764D01*
X136031466Y-99133583D01*
X136470997Y-99316092D01*
X136946915Y-99316507D01*
X137386764Y-99134765D01*
X137723583Y-98798534D01*
X137906092Y-98359003D01*
X137906093Y-98356915D01*
X153293493Y-98356915D01*
X153475235Y-98796764D01*
X153811466Y-99133583D01*
X154250997Y-99316092D01*
X154726915Y-99316507D01*
X155166764Y-99134765D01*
X155503583Y-98798534D01*
X155686092Y-98359003D01*
X155686507Y-97883085D01*
X155504765Y-97443236D01*
X155168534Y-97106417D01*
X154729003Y-96923908D01*
X154253085Y-96923493D01*
X153813236Y-97105235D01*
X153476417Y-97441466D01*
X153293908Y-97880997D01*
X153293493Y-98356915D01*
X137906093Y-98356915D01*
X137906507Y-97883085D01*
X137724765Y-97443236D01*
X137388534Y-97106417D01*
X136949003Y-96923908D01*
X136473085Y-96923493D01*
X136033236Y-97105235D01*
X135696417Y-97441466D01*
X135513908Y-97880997D01*
X135513493Y-98356915D01*
X130420002Y-98356915D01*
X130420002Y-95816915D01*
X135513493Y-95816915D01*
X135695235Y-96256764D01*
X136031466Y-96593583D01*
X136470997Y-96776092D01*
X136946915Y-96776507D01*
X137386764Y-96594765D01*
X137723583Y-96258534D01*
X137906092Y-95819003D01*
X137906093Y-95816915D01*
X153293493Y-95816915D01*
X153475235Y-96256764D01*
X153811466Y-96593583D01*
X154250997Y-96776092D01*
X154726915Y-96776507D01*
X155166764Y-96594765D01*
X155503583Y-96258534D01*
X155686092Y-95819003D01*
X155686507Y-95343085D01*
X155504765Y-94903236D01*
X155168534Y-94566417D01*
X154729003Y-94383908D01*
X154253085Y-94383493D01*
X153813236Y-94565235D01*
X153476417Y-94901466D01*
X153293908Y-95340997D01*
X153293493Y-95816915D01*
X137906093Y-95816915D01*
X137906507Y-95343085D01*
X137724765Y-94903236D01*
X137388534Y-94566417D01*
X136949003Y-94383908D01*
X136473085Y-94383493D01*
X136033236Y-94565235D01*
X135696417Y-94901466D01*
X135513908Y-95340997D01*
X135513493Y-95816915D01*
X130420002Y-95816915D01*
X130420002Y-95139656D01*
X131896985Y-93662673D01*
X131988029Y-93526415D01*
X132020000Y-93365688D01*
X132020000Y-93276915D01*
X135513493Y-93276915D01*
X135695235Y-93716764D01*
X136031466Y-94053583D01*
X136470997Y-94236092D01*
X136946915Y-94236507D01*
X137386764Y-94054765D01*
X137723583Y-93718534D01*
X137906092Y-93279003D01*
X137906093Y-93276915D01*
X153293493Y-93276915D01*
X153475235Y-93716764D01*
X153811466Y-94053583D01*
X154250997Y-94236092D01*
X154726915Y-94236507D01*
X155166764Y-94054765D01*
X155503583Y-93718534D01*
X155686092Y-93279003D01*
X155686507Y-92803085D01*
X155504765Y-92363236D01*
X155168534Y-92026417D01*
X154729003Y-91843908D01*
X154253085Y-91843493D01*
X153813236Y-92025235D01*
X153476417Y-92361466D01*
X153293908Y-92800997D01*
X153293493Y-93276915D01*
X137906093Y-93276915D01*
X137906507Y-92803085D01*
X137724765Y-92363236D01*
X137388534Y-92026417D01*
X136949003Y-91843908D01*
X136473085Y-91843493D01*
X136033236Y-92025235D01*
X135696417Y-92361466D01*
X135513908Y-92800997D01*
X135513493Y-93276915D01*
X132020000Y-93276915D01*
X132020000Y-91373970D01*
X132473969Y-90920000D01*
X135589142Y-90920000D01*
X135695235Y-91176764D01*
X136031466Y-91513583D01*
X136470997Y-91696092D01*
X136946915Y-91696507D01*
X137386764Y-91514765D01*
X137698428Y-91203645D01*
X153821710Y-91203645D01*
X153925312Y-91319758D01*
X154282005Y-91473454D01*
X154670362Y-91478951D01*
X155031261Y-91335411D01*
X155054688Y-91319758D01*
X155158290Y-91203645D01*
X154490000Y-90535355D01*
X153821710Y-91203645D01*
X137698428Y-91203645D01*
X137723583Y-91178534D01*
X137906092Y-90739003D01*
X137906143Y-90680362D01*
X153511049Y-90680362D01*
X153654589Y-91041261D01*
X153670242Y-91064688D01*
X153786355Y-91168290D01*
X154454645Y-90500000D01*
X154525355Y-90500000D01*
X155193645Y-91168290D01*
X155309758Y-91064688D01*
X155463454Y-90707995D01*
X155468951Y-90319638D01*
X155325411Y-89958739D01*
X155309758Y-89935312D01*
X155193645Y-89831710D01*
X154525355Y-90500000D01*
X154454645Y-90500000D01*
X153786355Y-89831710D01*
X153670242Y-89935312D01*
X153516546Y-90292005D01*
X153511049Y-90680362D01*
X137906143Y-90680362D01*
X137906507Y-90263085D01*
X137724765Y-89823236D01*
X137697931Y-89796355D01*
X153821710Y-89796355D01*
X154490000Y-90464645D01*
X155158290Y-89796355D01*
X155054688Y-89680242D01*
X154697995Y-89526546D01*
X154309638Y-89521049D01*
X153948739Y-89664589D01*
X153925312Y-89680242D01*
X153821710Y-89796355D01*
X137697931Y-89796355D01*
X137388534Y-89486417D01*
X136949003Y-89303908D01*
X136473085Y-89303493D01*
X136033236Y-89485235D01*
X135696417Y-89821466D01*
X135589064Y-90080000D01*
X132300000Y-90080000D01*
X132139273Y-90111971D01*
X132003015Y-90203015D01*
X132003013Y-90203018D01*
X131303015Y-90903015D01*
X131220002Y-91027254D01*
X131220002Y-89573968D01*
X132413970Y-88380000D01*
X135589142Y-88380000D01*
X135695235Y-88636764D01*
X136031466Y-88973583D01*
X136470997Y-89156092D01*
X136946915Y-89156507D01*
X137386764Y-88974765D01*
X137723583Y-88638534D01*
X137906092Y-88199003D01*
X137906093Y-88196915D01*
X153293493Y-88196915D01*
X153475235Y-88636764D01*
X153811466Y-88973583D01*
X154250997Y-89156092D01*
X154726915Y-89156507D01*
X155166764Y-88974765D01*
X155503583Y-88638534D01*
X155686092Y-88199003D01*
X155686507Y-87723085D01*
X155504765Y-87283236D01*
X155168534Y-86946417D01*
X154729003Y-86763908D01*
X154253085Y-86763493D01*
X153813236Y-86945235D01*
X153476417Y-87281466D01*
X153293908Y-87720997D01*
X153293493Y-88196915D01*
X137906093Y-88196915D01*
X137906507Y-87723085D01*
X137724765Y-87283236D01*
X137388534Y-86946417D01*
X136949003Y-86763908D01*
X136473085Y-86763493D01*
X136033236Y-86945235D01*
X135696417Y-87281466D01*
X135589064Y-87540000D01*
X132240000Y-87540000D01*
X132079273Y-87571971D01*
X131943015Y-87663015D01*
X130820000Y-88786030D01*
X130820000Y-86123645D01*
X136041710Y-86123645D01*
X136145312Y-86239758D01*
X136502005Y-86393454D01*
X136890362Y-86398951D01*
X137251261Y-86255411D01*
X137274688Y-86239758D01*
X137378290Y-86123645D01*
X136710000Y-85455355D01*
X136041710Y-86123645D01*
X130820000Y-86123645D01*
X130820000Y-85600362D01*
X135731049Y-85600362D01*
X135874589Y-85961261D01*
X135890242Y-85984688D01*
X136006355Y-86088290D01*
X136674645Y-85420000D01*
X136745355Y-85420000D01*
X137413645Y-86088290D01*
X137529758Y-85984688D01*
X137670992Y-85656915D01*
X153293493Y-85656915D01*
X153475235Y-86096764D01*
X153811466Y-86433583D01*
X154250997Y-86616092D01*
X154726915Y-86616507D01*
X155166764Y-86434765D01*
X155503583Y-86098534D01*
X155686092Y-85659003D01*
X155686507Y-85183085D01*
X155504765Y-84743236D01*
X155168534Y-84406417D01*
X154729003Y-84223908D01*
X154253085Y-84223493D01*
X153813236Y-84405235D01*
X153476417Y-84741466D01*
X153293908Y-85180997D01*
X153293493Y-85656915D01*
X137670992Y-85656915D01*
X137683454Y-85627995D01*
X137688951Y-85239638D01*
X137545411Y-84878739D01*
X137529758Y-84855312D01*
X137413645Y-84751710D01*
X136745355Y-85420000D01*
X136674645Y-85420000D01*
X136006355Y-84751710D01*
X135890242Y-84855312D01*
X135736546Y-85212005D01*
X135731049Y-85600362D01*
X130820000Y-85600362D01*
X130820000Y-85339656D01*
X131443300Y-84716355D01*
X136041710Y-84716355D01*
X136710000Y-85384645D01*
X137378290Y-84716355D01*
X137274688Y-84600242D01*
X136917995Y-84446546D01*
X136529638Y-84441049D01*
X136168739Y-84584589D01*
X136145312Y-84600242D01*
X136041710Y-84716355D01*
X131443300Y-84716355D01*
X132459655Y-83700000D01*
X135838221Y-83700000D01*
X136031466Y-83893583D01*
X136470997Y-84076092D01*
X136946915Y-84076507D01*
X137386764Y-83894765D01*
X137723583Y-83558534D01*
X137906092Y-83119003D01*
X137906093Y-83116915D01*
X153293493Y-83116915D01*
X153475235Y-83556764D01*
X153811466Y-83893583D01*
X154250997Y-84076092D01*
X154726915Y-84076507D01*
X155166764Y-83894765D01*
X155503583Y-83558534D01*
X155686092Y-83119003D01*
X155686507Y-82643085D01*
X155504765Y-82203236D01*
X155168534Y-81866417D01*
X154729003Y-81683908D01*
X154253085Y-81683493D01*
X153813236Y-81865235D01*
X153476417Y-82201466D01*
X153293908Y-82640997D01*
X153293493Y-83116915D01*
X137906093Y-83116915D01*
X137906507Y-82643085D01*
X137724765Y-82203236D01*
X137388534Y-81866417D01*
X136949003Y-81683908D01*
X136473085Y-81683493D01*
X136033236Y-81865235D01*
X135838130Y-82060000D01*
X132120005Y-82060000D01*
X132120000Y-82059999D01*
X131806200Y-82122419D01*
X131540172Y-82300172D01*
X131540170Y-82300175D01*
X129420172Y-84420172D01*
X129242419Y-84686199D01*
X129179999Y-85000000D01*
X129180000Y-85000005D01*
X129180000Y-92060345D01*
X128557450Y-92682894D01*
X128213770Y-92540186D01*
X127788098Y-92539814D01*
X127394685Y-92702369D01*
X127093427Y-93003102D01*
X126930186Y-93396230D01*
X126929814Y-93821902D01*
X126395000Y-93821902D01*
X126395000Y-91281902D01*
X126929814Y-91281902D01*
X127092369Y-91675315D01*
X127393102Y-91976573D01*
X127786230Y-92139814D01*
X128211902Y-92140186D01*
X128605315Y-91977631D01*
X128906573Y-91676898D01*
X129069814Y-91283770D01*
X129070186Y-90858098D01*
X128907631Y-90464685D01*
X128606898Y-90163427D01*
X128213770Y-90000186D01*
X127788098Y-89999814D01*
X127394685Y-90162369D01*
X127093427Y-90463102D01*
X126930186Y-90856230D01*
X126929814Y-91281902D01*
X126395000Y-91281902D01*
X126395000Y-88741902D01*
X126929814Y-88741902D01*
X127092369Y-89135315D01*
X127393102Y-89436573D01*
X127786230Y-89599814D01*
X128211902Y-89600186D01*
X128605315Y-89437631D01*
X128906573Y-89136898D01*
X129069814Y-88743770D01*
X129070186Y-88318098D01*
X128907631Y-87924685D01*
X128606898Y-87623427D01*
X128213770Y-87460186D01*
X127788098Y-87459814D01*
X127394685Y-87622369D01*
X127093427Y-87923102D01*
X126930186Y-88316230D01*
X126929814Y-88741902D01*
X126395000Y-88741902D01*
X126395000Y-86602553D01*
X127422802Y-86602553D01*
X127511032Y-86705539D01*
X127822078Y-86838192D01*
X128160210Y-86841715D01*
X128473952Y-86715573D01*
X128488968Y-86705539D01*
X128577198Y-86602553D01*
X128000000Y-86025355D01*
X127422802Y-86602553D01*
X126395000Y-86602553D01*
X126395000Y-86150210D01*
X127148285Y-86150210D01*
X127274427Y-86463952D01*
X127284461Y-86478968D01*
X127387447Y-86567198D01*
X127964645Y-85990000D01*
X128035355Y-85990000D01*
X128612553Y-86567198D01*
X128715539Y-86478968D01*
X128848192Y-86167922D01*
X128851715Y-85829790D01*
X128725573Y-85516048D01*
X128715539Y-85501032D01*
X128612553Y-85412802D01*
X128035355Y-85990000D01*
X127964645Y-85990000D01*
X127387447Y-85412802D01*
X127284461Y-85501032D01*
X127151808Y-85812078D01*
X127148285Y-86150210D01*
X126395000Y-86150210D01*
X126395000Y-85377447D01*
X127422802Y-85377447D01*
X128000000Y-85954645D01*
X128577198Y-85377447D01*
X128488968Y-85274461D01*
X128177922Y-85141808D01*
X127839790Y-85138285D01*
X127526048Y-85264427D01*
X127511032Y-85274461D01*
X127422802Y-85377447D01*
X126395000Y-85377447D01*
X126395000Y-83661902D01*
X126929814Y-83661902D01*
X127092369Y-84055315D01*
X127393102Y-84356573D01*
X127786230Y-84519814D01*
X128211902Y-84520186D01*
X128605315Y-84357631D01*
X128906573Y-84056898D01*
X129069814Y-83663770D01*
X129070186Y-83238098D01*
X128907631Y-82844685D01*
X128606898Y-82543427D01*
X128213770Y-82380186D01*
X127788098Y-82379814D01*
X127394685Y-82542369D01*
X127093427Y-82843102D01*
X126930186Y-83236230D01*
X126929814Y-83661902D01*
X126395000Y-83661902D01*
X126395000Y-81121902D01*
X126929814Y-81121902D01*
X127092369Y-81515315D01*
X127393102Y-81816573D01*
X127786230Y-81979814D01*
X128211902Y-81980186D01*
X128605315Y-81817631D01*
X128906573Y-81516898D01*
X129069814Y-81123770D01*
X129070186Y-80698098D01*
X128907631Y-80304685D01*
X128606898Y-80003427D01*
X128213770Y-79840186D01*
X127788098Y-79839814D01*
X127394685Y-80002369D01*
X127093427Y-80303102D01*
X126930186Y-80696230D01*
X126929814Y-81121902D01*
X126395000Y-81121902D01*
X126395000Y-81038904D01*
X126524323Y-80388755D01*
X126870565Y-79870565D01*
X127388755Y-79524323D01*
X128038903Y-79395000D01*
X137961098Y-79395000D01*
X138037220Y-79410142D01*
M02*
