G04 #@! TF.FileFunction,Legend,Top*
%FSLAX46Y46*%
G04 Gerber Fmt 4.6, Leading zero omitted, Abs format (unit mm)*
G04 Created by KiCad (PCBNEW 4.0.6-e0-6349~53~ubuntu14.04.1) date Mon Apr  3 21:26:05 2017*
%MOMM*%
%LPD*%
G01*
G04 APERTURE LIST*
%ADD10C,0.100000*%
%ADD11C,0.203200*%
%ADD12C,0.150000*%
G04 APERTURE END LIST*
D10*
D11*
X137980000Y-98755000D02*
X137345000Y-99390000D01*
X136075000Y-99390000D02*
X135440000Y-98755000D01*
X137345000Y-94310000D02*
X137980000Y-94945000D01*
X137980000Y-96215000D02*
X137345000Y-96850000D01*
X136075000Y-96850000D02*
X135440000Y-96215000D01*
X135440000Y-94945000D02*
X136075000Y-94310000D01*
X137980000Y-97485000D02*
X137345000Y-96850000D01*
X136075000Y-96850000D02*
X135440000Y-97485000D01*
X137980000Y-91135000D02*
X137345000Y-91770000D01*
X136075000Y-91770000D02*
X135440000Y-91135000D01*
X137345000Y-91770000D02*
X137980000Y-92405000D01*
X137980000Y-93675000D02*
X137345000Y-94310000D01*
X136075000Y-94310000D02*
X135440000Y-93675000D01*
X135440000Y-92405000D02*
X136075000Y-91770000D01*
X137345000Y-86690000D02*
X137980000Y-87325000D01*
X137980000Y-88595000D02*
X137345000Y-89230000D01*
X136075000Y-89230000D02*
X135440000Y-88595000D01*
X135440000Y-87325000D02*
X136075000Y-86690000D01*
X137980000Y-89865000D02*
X137345000Y-89230000D01*
X136075000Y-89230000D02*
X135440000Y-89865000D01*
X137980000Y-83515000D02*
X137345000Y-84150000D01*
X136075000Y-84150000D02*
X135440000Y-83515000D01*
X137345000Y-84150000D02*
X137980000Y-84785000D01*
X137980000Y-86055000D02*
X137345000Y-86690000D01*
X136075000Y-86690000D02*
X135440000Y-86055000D01*
X135440000Y-84785000D02*
X136075000Y-84150000D01*
X137345000Y-81610000D02*
X136075000Y-81610000D01*
X137980000Y-82245000D02*
X137345000Y-81610000D01*
X136075000Y-81610000D02*
X135440000Y-82245000D01*
X137980000Y-101295000D02*
X137345000Y-101930000D01*
X136075000Y-101930000D02*
X135440000Y-101295000D01*
X137980000Y-100025000D02*
X137345000Y-99390000D01*
X136075000Y-99390000D02*
X135440000Y-100025000D01*
X137980000Y-103835000D02*
X137345000Y-104470000D01*
X136075000Y-104470000D02*
X135440000Y-103835000D01*
X137980000Y-102565000D02*
X137345000Y-101930000D01*
X136075000Y-101930000D02*
X135440000Y-102565000D01*
X137980000Y-106375000D02*
X137345000Y-107010000D01*
X136075000Y-107010000D02*
X135440000Y-106375000D01*
X137980000Y-105105000D02*
X137345000Y-104470000D01*
X136075000Y-104470000D02*
X135440000Y-105105000D01*
X137980000Y-108915000D02*
X137345000Y-109550000D01*
X136075000Y-109550000D02*
X135440000Y-108915000D01*
X137980000Y-107645000D02*
X137345000Y-107010000D01*
X136075000Y-107010000D02*
X135440000Y-107645000D01*
X137980000Y-111455000D02*
X137345000Y-112090000D01*
X136075000Y-112090000D02*
X135440000Y-111455000D01*
X137980000Y-110185000D02*
X137345000Y-109550000D01*
X136075000Y-109550000D02*
X135440000Y-110185000D01*
X137980000Y-113995000D02*
X137345000Y-114630000D01*
X136075000Y-114630000D02*
X135440000Y-113995000D01*
X137980000Y-112725000D02*
X137345000Y-112090000D01*
X136075000Y-112090000D02*
X135440000Y-112725000D01*
X137980000Y-116535000D02*
X137345000Y-117170000D01*
X136075000Y-117170000D02*
X135440000Y-116535000D01*
X137980000Y-115265000D02*
X137345000Y-114630000D01*
X136075000Y-114630000D02*
X135440000Y-115265000D01*
X137980000Y-119075000D02*
X137345000Y-119710000D01*
X136075000Y-119710000D02*
X135440000Y-119075000D01*
X137980000Y-117805000D02*
X137345000Y-117170000D01*
X136075000Y-117170000D02*
X135440000Y-117805000D01*
X137980000Y-121615000D02*
X137345000Y-122250000D01*
X136075000Y-122250000D02*
X135440000Y-121615000D01*
X137980000Y-120345000D02*
X137345000Y-119710000D01*
X136075000Y-119710000D02*
X135440000Y-120345000D01*
X137980000Y-124155000D02*
X137345000Y-124790000D01*
X136075000Y-124790000D02*
X135440000Y-124155000D01*
X137980000Y-122885000D02*
X137345000Y-122250000D01*
X136075000Y-122250000D02*
X135440000Y-122885000D01*
X137980000Y-126695000D02*
X137345000Y-127330000D01*
X137345000Y-127330000D02*
X136075000Y-127330000D01*
X136075000Y-127330000D02*
X135440000Y-126695000D01*
X137980000Y-125425000D02*
X137345000Y-124790000D01*
X136075000Y-124790000D02*
X135440000Y-125425000D01*
X137980000Y-96215000D02*
X137980000Y-94945000D01*
X137980000Y-98755000D02*
X137980000Y-97485000D01*
X137980000Y-93675000D02*
X137980000Y-92405000D01*
X137980000Y-88595000D02*
X137980000Y-87325000D01*
X137980000Y-91135000D02*
X137980000Y-89865000D01*
X137980000Y-86055000D02*
X137980000Y-84785000D01*
X137980000Y-83515000D02*
X137980000Y-82245000D01*
X137980000Y-101295000D02*
X137980000Y-100025000D01*
X137980000Y-103835000D02*
X137980000Y-102565000D01*
X137980000Y-106375000D02*
X137980000Y-105105000D01*
X137980000Y-108915000D02*
X137980000Y-107645000D01*
X137980000Y-111455000D02*
X137980000Y-110185000D01*
X137980000Y-113995000D02*
X137980000Y-112725000D01*
X137980000Y-116535000D02*
X137980000Y-115265000D01*
X137980000Y-119075000D02*
X137980000Y-117805000D01*
X137980000Y-121615000D02*
X137980000Y-120345000D01*
X137980000Y-124155000D02*
X137980000Y-122885000D01*
X137980000Y-126695000D02*
X137980000Y-125425000D01*
X155760000Y-98755000D02*
X155125000Y-99390000D01*
X153855000Y-99390000D02*
X153220000Y-98755000D01*
X155125000Y-94310000D02*
X155760000Y-94945000D01*
X155760000Y-96215000D02*
X155125000Y-96850000D01*
X153855000Y-96850000D02*
X153220000Y-96215000D01*
X153220000Y-96215000D02*
X153220000Y-94945000D01*
X153220000Y-94945000D02*
X153855000Y-94310000D01*
X155760000Y-97485000D02*
X155125000Y-96850000D01*
X153855000Y-96850000D02*
X153220000Y-97485000D01*
X153220000Y-98755000D02*
X153220000Y-97485000D01*
X155760000Y-91135000D02*
X155125000Y-91770000D01*
X153855000Y-91770000D02*
X153220000Y-91135000D01*
X155125000Y-91770000D02*
X155760000Y-92405000D01*
X155760000Y-93675000D02*
X155125000Y-94310000D01*
X153855000Y-94310000D02*
X153220000Y-93675000D01*
X153220000Y-93675000D02*
X153220000Y-92405000D01*
X153220000Y-92405000D02*
X153855000Y-91770000D01*
X155125000Y-86690000D02*
X155760000Y-87325000D01*
X155760000Y-88595000D02*
X155125000Y-89230000D01*
X153855000Y-89230000D02*
X153220000Y-88595000D01*
X153220000Y-88595000D02*
X153220000Y-87325000D01*
X153220000Y-87325000D02*
X153855000Y-86690000D01*
X155760000Y-89865000D02*
X155125000Y-89230000D01*
X153855000Y-89230000D02*
X153220000Y-89865000D01*
X153220000Y-91135000D02*
X153220000Y-89865000D01*
X155760000Y-83515000D02*
X155125000Y-84150000D01*
X153855000Y-84150000D02*
X153220000Y-83515000D01*
X155125000Y-84150000D02*
X155760000Y-84785000D01*
X155760000Y-86055000D02*
X155125000Y-86690000D01*
X153855000Y-86690000D02*
X153220000Y-86055000D01*
X153220000Y-86055000D02*
X153220000Y-84785000D01*
X153220000Y-84785000D02*
X153855000Y-84150000D01*
X155125000Y-81610000D02*
X153855000Y-81610000D01*
X155760000Y-82245000D02*
X155125000Y-81610000D01*
X153855000Y-81610000D02*
X153220000Y-82245000D01*
X153220000Y-83515000D02*
X153220000Y-82245000D01*
X155760000Y-101295000D02*
X155125000Y-101930000D01*
X153855000Y-101930000D02*
X153220000Y-101295000D01*
X155760000Y-100025000D02*
X155125000Y-99390000D01*
X153855000Y-99390000D02*
X153220000Y-100025000D01*
X153220000Y-101295000D02*
X153220000Y-100025000D01*
X155760000Y-103835000D02*
X155125000Y-104470000D01*
X153855000Y-104470000D02*
X153220000Y-103835000D01*
X155760000Y-102565000D02*
X155125000Y-101930000D01*
X153855000Y-101930000D02*
X153220000Y-102565000D01*
X153220000Y-103835000D02*
X153220000Y-102565000D01*
X155760000Y-106375000D02*
X155125000Y-107010000D01*
X153855000Y-107010000D02*
X153220000Y-106375000D01*
X155760000Y-105105000D02*
X155125000Y-104470000D01*
X153855000Y-104470000D02*
X153220000Y-105105000D01*
X153220000Y-106375000D02*
X153220000Y-105105000D01*
X155760000Y-108915000D02*
X155125000Y-109550000D01*
X153855000Y-109550000D02*
X153220000Y-108915000D01*
X155760000Y-107645000D02*
X155125000Y-107010000D01*
X153855000Y-107010000D02*
X153220000Y-107645000D01*
X153220000Y-108915000D02*
X153220000Y-107645000D01*
X155760000Y-111455000D02*
X155125000Y-112090000D01*
X153855000Y-112090000D02*
X153220000Y-111455000D01*
X155760000Y-110185000D02*
X155125000Y-109550000D01*
X153855000Y-109550000D02*
X153220000Y-110185000D01*
X153220000Y-111455000D02*
X153220000Y-110185000D01*
X155760000Y-113995000D02*
X155125000Y-114630000D01*
X153855000Y-114630000D02*
X153220000Y-113995000D01*
X155760000Y-112725000D02*
X155125000Y-112090000D01*
X153855000Y-112090000D02*
X153220000Y-112725000D01*
X153220000Y-113995000D02*
X153220000Y-112725000D01*
X155760000Y-116535000D02*
X155125000Y-117170000D01*
X153855000Y-117170000D02*
X153220000Y-116535000D01*
X155760000Y-115265000D02*
X155125000Y-114630000D01*
X153855000Y-114630000D02*
X153220000Y-115265000D01*
X153220000Y-116535000D02*
X153220000Y-115265000D01*
X155760000Y-119075000D02*
X155125000Y-119710000D01*
X153855000Y-119710000D02*
X153220000Y-119075000D01*
X155760000Y-117805000D02*
X155125000Y-117170000D01*
X153855000Y-117170000D02*
X153220000Y-117805000D01*
X153220000Y-119075000D02*
X153220000Y-117805000D01*
X155760000Y-121615000D02*
X155125000Y-122250000D01*
X153855000Y-122250000D02*
X153220000Y-121615000D01*
X155760000Y-120345000D02*
X155125000Y-119710000D01*
X153855000Y-119710000D02*
X153220000Y-120345000D01*
X153220000Y-121615000D02*
X153220000Y-120345000D01*
X155760000Y-124155000D02*
X155125000Y-124790000D01*
X153855000Y-124790000D02*
X153220000Y-124155000D01*
X155760000Y-122885000D02*
X155125000Y-122250000D01*
X153855000Y-122250000D02*
X153220000Y-122885000D01*
X153220000Y-124155000D02*
X153220000Y-122885000D01*
X155760000Y-126695000D02*
X155125000Y-127330000D01*
X155125000Y-127330000D02*
X153855000Y-127330000D01*
X153855000Y-127330000D02*
X153220000Y-126695000D01*
X155760000Y-125425000D02*
X155125000Y-124790000D01*
X153855000Y-124790000D02*
X153220000Y-125425000D01*
X153220000Y-126695000D02*
X153220000Y-125425000D01*
X155760000Y-96215000D02*
X155760000Y-94945000D01*
X155760000Y-98755000D02*
X155760000Y-97485000D01*
X155760000Y-93675000D02*
X155760000Y-92405000D01*
X155760000Y-88595000D02*
X155760000Y-87325000D01*
X155760000Y-91135000D02*
X155760000Y-89865000D01*
X155760000Y-86055000D02*
X155760000Y-84785000D01*
X155760000Y-83515000D02*
X155760000Y-82245000D01*
X155760000Y-101295000D02*
X155760000Y-100025000D01*
X155760000Y-103835000D02*
X155760000Y-102565000D01*
X155760000Y-106375000D02*
X155760000Y-105105000D01*
X155760000Y-108915000D02*
X155760000Y-107645000D01*
X155760000Y-111455000D02*
X155760000Y-110185000D01*
X155760000Y-113995000D02*
X155760000Y-112725000D01*
X155760000Y-116535000D02*
X155760000Y-115265000D01*
X155760000Y-119075000D02*
X155760000Y-117805000D01*
X155760000Y-121615000D02*
X155760000Y-120345000D01*
X155760000Y-124155000D02*
X155760000Y-122885000D01*
X155760000Y-126695000D02*
X155760000Y-125425000D01*
X155760000Y-79070000D02*
X155760000Y-127330000D01*
X155760000Y-127330000D02*
X154490000Y-129870000D01*
X154490000Y-129870000D02*
X136710000Y-129870000D01*
X136710000Y-129870000D02*
X135440000Y-127330000D01*
X135440000Y-127330000D02*
X135440000Y-79070000D01*
X135440000Y-79070000D02*
X155760000Y-79070000D01*
D12*
X144888095Y-91152381D02*
X144888095Y-91961905D01*
X144935714Y-92057143D01*
X144983333Y-92104762D01*
X145078571Y-92152381D01*
X145269048Y-92152381D01*
X145364286Y-92104762D01*
X145411905Y-92057143D01*
X145459524Y-91961905D01*
X145459524Y-91152381D01*
X146459524Y-92152381D02*
X145888095Y-92152381D01*
X146173809Y-92152381D02*
X146173809Y-91152381D01*
X146078571Y-91295238D01*
X145983333Y-91390476D01*
X145888095Y-91438095D01*
M02*
