M48
;DRILL file {KiCad 4.0.6-e0-6349~53~ubuntu14.04.1} date Thu Apr  6 14:21:30 2017
;FORMAT={-:-/ absolute / inch / decimal}
FMAT,2
INCH,TZ
T1C0.035
T2C0.037
%
G90
G05
M72
T1
X5.3823Y-3.263
X5.3823Y-3.363
X5.3823Y-3.463
X5.3823Y-3.563
X5.3823Y-3.663
X5.3823Y-3.763
X5.3823Y-3.863
X5.3823Y-3.963
X5.3823Y-4.063
X5.3823Y-4.163
X5.3823Y-4.263
X5.3823Y-4.363
X5.3823Y-4.463
X5.3823Y-4.563
X5.3823Y-4.663
X5.3823Y-4.763
X5.3823Y-4.863
X5.3823Y-4.963
X6.0823Y-3.263
X6.0823Y-3.363
X6.0823Y-3.463
X6.0823Y-3.563
X6.0823Y-3.663
X6.0823Y-3.763
X6.0823Y-3.863
X6.0823Y-3.963
X6.0823Y-4.063
X6.0823Y-4.163
X6.0823Y-4.263
X6.0823Y-4.363
X6.0823Y-4.463
X6.0823Y-4.563
X6.0823Y-4.663
X6.0823Y-4.763
X6.0823Y-4.863
X6.0823Y-4.963
T2
X5.0394Y-3.1854
X5.0394Y-3.2854
X5.0394Y-3.3854
X5.0394Y-3.4854
X5.0394Y-3.5854
X5.0394Y-3.6854
X5.0394Y-3.7854
X5.0394Y-3.8854
X5.0394Y-3.9854
X5.0394Y-4.0854
X5.0394Y-4.1854
X5.0394Y-4.2854
X5.0394Y-4.3854
X5.0394Y-4.4854
X5.0394Y-4.5854
X5.0394Y-4.6854
X5.0394Y-4.7854
X5.0394Y-4.8854
T0
M30
