G04 #@! TF.FileFunction,Legend,Bot*
%FSLAX46Y46*%
G04 Gerber Fmt 4.6, Leading zero omitted, Abs format (unit mm)*
G04 Created by KiCad (PCBNEW 4.0.6-e0-6349~53~ubuntu14.04.1) date Mon Apr  3 21:26:05 2017*
%MOMM*%
%LPD*%
G01*
G04 APERTURE LIST*
%ADD10C,0.100000*%
%ADD11C,0.200000*%
%ADD12C,0.152400*%
%ADD13C,0.010000*%
%ADD14C,0.150000*%
G04 APERTURE END LIST*
D10*
D11*
X147207143Y-107878571D02*
X147778571Y-108278571D01*
X147207143Y-108564286D02*
X148407143Y-108564286D01*
X148407143Y-108107143D01*
X148350000Y-107992857D01*
X148292857Y-107935714D01*
X148178571Y-107878571D01*
X148007143Y-107878571D01*
X147892857Y-107935714D01*
X147835714Y-107992857D01*
X147778571Y-108107143D01*
X147778571Y-108564286D01*
X147207143Y-106735714D02*
X147207143Y-107421429D01*
X147207143Y-107078571D02*
X148407143Y-107078571D01*
X148235714Y-107192857D01*
X148121429Y-107307143D01*
X148064286Y-107421429D01*
X147207143Y-105592857D02*
X147207143Y-106278572D01*
X147207143Y-105935714D02*
X148407143Y-105935714D01*
X148235714Y-106050000D01*
X148121429Y-106164286D01*
X148064286Y-106278572D01*
X148407143Y-104850000D02*
X148407143Y-104735715D01*
X148350000Y-104621429D01*
X148292857Y-104564286D01*
X148178571Y-104507143D01*
X147950000Y-104450000D01*
X147664286Y-104450000D01*
X147435714Y-104507143D01*
X147321429Y-104564286D01*
X147264286Y-104621429D01*
X147207143Y-104735715D01*
X147207143Y-104850000D01*
X147264286Y-104964286D01*
X147321429Y-105021429D01*
X147435714Y-105078572D01*
X147664286Y-105135715D01*
X147950000Y-105135715D01*
X148178571Y-105078572D01*
X148292857Y-105021429D01*
X148350000Y-104964286D01*
X148407143Y-104850000D01*
X148292857Y-103992858D02*
X148350000Y-103935715D01*
X148407143Y-103821429D01*
X148407143Y-103535715D01*
X148350000Y-103421429D01*
X148292857Y-103364286D01*
X148178571Y-103307143D01*
X148064286Y-103307143D01*
X147892857Y-103364286D01*
X147207143Y-104050000D01*
X147207143Y-103307143D01*
X148007143Y-101992857D02*
X147207143Y-101707143D01*
X148007143Y-101421429D01*
X147207143Y-100335714D02*
X147207143Y-101021429D01*
X147207143Y-100678571D02*
X148407143Y-100678571D01*
X148235714Y-100792857D01*
X148121429Y-100907143D01*
X148064286Y-101021429D01*
X147321429Y-99821429D02*
X147264286Y-99764286D01*
X147207143Y-99821429D01*
X147264286Y-99878572D01*
X147321429Y-99821429D01*
X147207143Y-99821429D01*
X148407143Y-99021428D02*
X148407143Y-98907143D01*
X148350000Y-98792857D01*
X148292857Y-98735714D01*
X148178571Y-98678571D01*
X147950000Y-98621428D01*
X147664286Y-98621428D01*
X147435714Y-98678571D01*
X147321429Y-98735714D01*
X147264286Y-98792857D01*
X147207143Y-98907143D01*
X147207143Y-99021428D01*
X147264286Y-99135714D01*
X147321429Y-99192857D01*
X147435714Y-99250000D01*
X147664286Y-99307143D01*
X147950000Y-99307143D01*
X148178571Y-99250000D01*
X148292857Y-99192857D01*
X148350000Y-99135714D01*
X148407143Y-99021428D01*
X146007143Y-108564286D02*
X144807143Y-108564286D01*
X145950000Y-108564286D02*
X146007143Y-108450000D01*
X146007143Y-108221429D01*
X145950000Y-108107143D01*
X145892857Y-108050000D01*
X145778571Y-107992857D01*
X145435714Y-107992857D01*
X145321429Y-108050000D01*
X145264286Y-108107143D01*
X145207143Y-108221429D01*
X145207143Y-108450000D01*
X145264286Y-108564286D01*
X145207143Y-106964286D02*
X145835714Y-106964286D01*
X145950000Y-107021429D01*
X146007143Y-107135715D01*
X146007143Y-107364286D01*
X145950000Y-107478572D01*
X145264286Y-106964286D02*
X145207143Y-107078572D01*
X145207143Y-107364286D01*
X145264286Y-107478572D01*
X145378571Y-107535715D01*
X145492857Y-107535715D01*
X145607143Y-107478572D01*
X145664286Y-107364286D01*
X145664286Y-107078572D01*
X145721429Y-106964286D01*
X145207143Y-106392858D02*
X146007143Y-106392858D01*
X145778571Y-106392858D02*
X145892857Y-106335715D01*
X145950000Y-106278572D01*
X146007143Y-106164286D01*
X146007143Y-106050001D01*
X146007143Y-105821429D02*
X146007143Y-105364286D01*
X146407143Y-105650001D02*
X145378571Y-105650001D01*
X145264286Y-105592858D01*
X145207143Y-105478572D01*
X145207143Y-105364286D01*
X145207143Y-104964287D02*
X146007143Y-104964287D01*
X146407143Y-104964287D02*
X146350000Y-105021430D01*
X146292857Y-104964287D01*
X146350000Y-104907144D01*
X146407143Y-104964287D01*
X146292857Y-104964287D01*
X145264286Y-103878572D02*
X145207143Y-103992858D01*
X145207143Y-104221429D01*
X145264286Y-104335715D01*
X145321429Y-104392858D01*
X145435714Y-104450001D01*
X145778571Y-104450001D01*
X145892857Y-104392858D01*
X145950000Y-104335715D01*
X146007143Y-104221429D01*
X146007143Y-103992858D01*
X145950000Y-103878572D01*
X145207143Y-103192858D02*
X145264286Y-103307144D01*
X145378571Y-103364287D01*
X146407143Y-103364287D01*
X145264286Y-102278573D02*
X145207143Y-102392859D01*
X145207143Y-102621430D01*
X145264286Y-102735716D01*
X145378571Y-102792859D01*
X145835714Y-102792859D01*
X145950000Y-102735716D01*
X146007143Y-102621430D01*
X146007143Y-102392859D01*
X145950000Y-102278573D01*
X145835714Y-102221430D01*
X145721429Y-102221430D01*
X145607143Y-102792859D01*
X145321429Y-101707145D02*
X145264286Y-101650002D01*
X145207143Y-101707145D01*
X145264286Y-101764288D01*
X145321429Y-101707145D01*
X145207143Y-101707145D01*
X145207143Y-101135716D02*
X146007143Y-101135716D01*
X146407143Y-101135716D02*
X146350000Y-101192859D01*
X146292857Y-101135716D01*
X146350000Y-101078573D01*
X146407143Y-101135716D01*
X146292857Y-101135716D01*
X145207143Y-100392858D02*
X145264286Y-100507144D01*
X145321429Y-100564287D01*
X145435714Y-100621430D01*
X145778571Y-100621430D01*
X145892857Y-100564287D01*
X145950000Y-100507144D01*
X146007143Y-100392858D01*
X146007143Y-100221430D01*
X145950000Y-100107144D01*
X145892857Y-100050001D01*
X145778571Y-99992858D01*
X145435714Y-99992858D01*
X145321429Y-100050001D01*
X145264286Y-100107144D01*
X145207143Y-100221430D01*
X145207143Y-100392858D01*
X145835714Y-98564287D02*
X145835714Y-98164287D01*
X145207143Y-97992858D02*
X145207143Y-98564287D01*
X146407143Y-98564287D01*
X146407143Y-97992858D01*
X145207143Y-97307144D02*
X145264286Y-97421430D01*
X145378571Y-97478573D01*
X146407143Y-97478573D01*
X145264286Y-96392859D02*
X145207143Y-96507145D01*
X145207143Y-96735716D01*
X145264286Y-96850002D01*
X145378571Y-96907145D01*
X145835714Y-96907145D01*
X145950000Y-96850002D01*
X146007143Y-96735716D01*
X146007143Y-96507145D01*
X145950000Y-96392859D01*
X145835714Y-96335716D01*
X145721429Y-96335716D01*
X145607143Y-96907145D01*
X145264286Y-95307145D02*
X145207143Y-95421431D01*
X145207143Y-95650002D01*
X145264286Y-95764288D01*
X145321429Y-95821431D01*
X145435714Y-95878574D01*
X145778571Y-95878574D01*
X145892857Y-95821431D01*
X145950000Y-95764288D01*
X146007143Y-95650002D01*
X146007143Y-95421431D01*
X145950000Y-95307145D01*
X146007143Y-94964288D02*
X146007143Y-94507145D01*
X146407143Y-94792860D02*
X145378571Y-94792860D01*
X145264286Y-94735717D01*
X145207143Y-94621431D01*
X145207143Y-94507145D01*
X145207143Y-94107146D02*
X146007143Y-94107146D01*
X145778571Y-94107146D02*
X145892857Y-94050003D01*
X145950000Y-93992860D01*
X146007143Y-93878574D01*
X146007143Y-93764289D01*
X145207143Y-93192860D02*
X145264286Y-93307146D01*
X145321429Y-93364289D01*
X145435714Y-93421432D01*
X145778571Y-93421432D01*
X145892857Y-93364289D01*
X145950000Y-93307146D01*
X146007143Y-93192860D01*
X146007143Y-93021432D01*
X145950000Y-92907146D01*
X145892857Y-92850003D01*
X145778571Y-92792860D01*
X145435714Y-92792860D01*
X145321429Y-92850003D01*
X145264286Y-92907146D01*
X145207143Y-93021432D01*
X145207143Y-93192860D01*
X146007143Y-92278575D02*
X145207143Y-92278575D01*
X145892857Y-92278575D02*
X145950000Y-92221432D01*
X146007143Y-92107146D01*
X146007143Y-91935718D01*
X145950000Y-91821432D01*
X145835714Y-91764289D01*
X145207143Y-91764289D01*
X145207143Y-90278575D02*
X146407143Y-90278575D01*
X146007143Y-89707146D02*
X145207143Y-89707146D01*
X145892857Y-89707146D02*
X145950000Y-89650003D01*
X146007143Y-89535717D01*
X146007143Y-89364289D01*
X145950000Y-89250003D01*
X145835714Y-89192860D01*
X145207143Y-89192860D01*
X146007143Y-88792860D02*
X146007143Y-88335717D01*
X146407143Y-88621432D02*
X145378571Y-88621432D01*
X145264286Y-88564289D01*
X145207143Y-88450003D01*
X145207143Y-88335717D01*
X145264286Y-87478575D02*
X145207143Y-87592861D01*
X145207143Y-87821432D01*
X145264286Y-87935718D01*
X145378571Y-87992861D01*
X145835714Y-87992861D01*
X145950000Y-87935718D01*
X146007143Y-87821432D01*
X146007143Y-87592861D01*
X145950000Y-87478575D01*
X145835714Y-87421432D01*
X145721429Y-87421432D01*
X145607143Y-87992861D01*
X145207143Y-86907147D02*
X146007143Y-86907147D01*
X145778571Y-86907147D02*
X145892857Y-86850004D01*
X145950000Y-86792861D01*
X146007143Y-86678575D01*
X146007143Y-86564290D01*
X146007143Y-86164290D02*
X144807143Y-86164290D01*
X145950000Y-86164290D02*
X146007143Y-86050004D01*
X146007143Y-85821433D01*
X145950000Y-85707147D01*
X145892857Y-85650004D01*
X145778571Y-85592861D01*
X145435714Y-85592861D01*
X145321429Y-85650004D01*
X145264286Y-85707147D01*
X145207143Y-85821433D01*
X145207143Y-86050004D01*
X145264286Y-86164290D01*
X145207143Y-84907147D02*
X145264286Y-85021433D01*
X145321429Y-85078576D01*
X145435714Y-85135719D01*
X145778571Y-85135719D01*
X145892857Y-85078576D01*
X145950000Y-85021433D01*
X146007143Y-84907147D01*
X146007143Y-84735719D01*
X145950000Y-84621433D01*
X145892857Y-84564290D01*
X145778571Y-84507147D01*
X145435714Y-84507147D01*
X145321429Y-84564290D01*
X145264286Y-84621433D01*
X145207143Y-84735719D01*
X145207143Y-84907147D01*
X145264286Y-84050005D02*
X145207143Y-83935719D01*
X145207143Y-83707147D01*
X145264286Y-83592862D01*
X145378571Y-83535719D01*
X145435714Y-83535719D01*
X145550000Y-83592862D01*
X145607143Y-83707147D01*
X145607143Y-83878576D01*
X145664286Y-83992862D01*
X145778571Y-84050005D01*
X145835714Y-84050005D01*
X145950000Y-83992862D01*
X146007143Y-83878576D01*
X146007143Y-83707147D01*
X145950000Y-83592862D01*
X145264286Y-82564290D02*
X145207143Y-82678576D01*
X145207143Y-82907147D01*
X145264286Y-83021433D01*
X145378571Y-83078576D01*
X145835714Y-83078576D01*
X145950000Y-83021433D01*
X146007143Y-82907147D01*
X146007143Y-82678576D01*
X145950000Y-82564290D01*
X145835714Y-82507147D01*
X145721429Y-82507147D01*
X145607143Y-83078576D01*
X145207143Y-81992862D02*
X146007143Y-81992862D01*
X145778571Y-81992862D02*
X145892857Y-81935719D01*
X145950000Y-81878576D01*
X146007143Y-81764290D01*
X146007143Y-81650005D01*
X144007143Y-108564286D02*
X142807143Y-108564286D01*
X143950000Y-108564286D02*
X144007143Y-108450000D01*
X144007143Y-108221429D01*
X143950000Y-108107143D01*
X143892857Y-108050000D01*
X143778571Y-107992857D01*
X143435714Y-107992857D01*
X143321429Y-108050000D01*
X143264286Y-108107143D01*
X143207143Y-108221429D01*
X143207143Y-108450000D01*
X143264286Y-108564286D01*
X143207143Y-107307143D02*
X143264286Y-107421429D01*
X143378571Y-107478572D01*
X144407143Y-107478572D01*
X144007143Y-106335715D02*
X143207143Y-106335715D01*
X144007143Y-106850001D02*
X143378571Y-106850001D01*
X143264286Y-106792858D01*
X143207143Y-106678572D01*
X143207143Y-106507144D01*
X143264286Y-106392858D01*
X143321429Y-106335715D01*
X144007143Y-105250001D02*
X143035714Y-105250001D01*
X142921429Y-105307144D01*
X142864286Y-105364287D01*
X142807143Y-105478572D01*
X142807143Y-105650001D01*
X142864286Y-105764287D01*
X143264286Y-105250001D02*
X143207143Y-105364287D01*
X143207143Y-105592858D01*
X143264286Y-105707144D01*
X143321429Y-105764287D01*
X143435714Y-105821430D01*
X143778571Y-105821430D01*
X143892857Y-105764287D01*
X143950000Y-105707144D01*
X144007143Y-105592858D01*
X144007143Y-105364287D01*
X143950000Y-105250001D01*
X144007143Y-104164287D02*
X143035714Y-104164287D01*
X142921429Y-104221430D01*
X142864286Y-104278573D01*
X142807143Y-104392858D01*
X142807143Y-104564287D01*
X142864286Y-104678573D01*
X143264286Y-104164287D02*
X143207143Y-104278573D01*
X143207143Y-104507144D01*
X143264286Y-104621430D01*
X143321429Y-104678573D01*
X143435714Y-104735716D01*
X143778571Y-104735716D01*
X143892857Y-104678573D01*
X143950000Y-104621430D01*
X144007143Y-104507144D01*
X144007143Y-104278573D01*
X143950000Y-104164287D01*
X143321429Y-103592859D02*
X143264286Y-103535716D01*
X143207143Y-103592859D01*
X143264286Y-103650002D01*
X143321429Y-103592859D01*
X143207143Y-103592859D01*
X143264286Y-102564287D02*
X143207143Y-102678573D01*
X143207143Y-102907144D01*
X143264286Y-103021430D01*
X143378571Y-103078573D01*
X143835714Y-103078573D01*
X143950000Y-103021430D01*
X144007143Y-102907144D01*
X144007143Y-102678573D01*
X143950000Y-102564287D01*
X143835714Y-102507144D01*
X143721429Y-102507144D01*
X143607143Y-103078573D01*
X143264286Y-101535716D02*
X143207143Y-101650002D01*
X143207143Y-101878573D01*
X143264286Y-101992859D01*
X143378571Y-102050002D01*
X143835714Y-102050002D01*
X143950000Y-101992859D01*
X144007143Y-101878573D01*
X144007143Y-101650002D01*
X143950000Y-101535716D01*
X143835714Y-101478573D01*
X143721429Y-101478573D01*
X143607143Y-102050002D01*
X143207143Y-99478573D02*
X143207143Y-100050002D01*
X144407143Y-100050002D01*
X143207143Y-98564287D02*
X143835714Y-98564287D01*
X143950000Y-98621430D01*
X144007143Y-98735716D01*
X144007143Y-98964287D01*
X143950000Y-99078573D01*
X143264286Y-98564287D02*
X143207143Y-98678573D01*
X143207143Y-98964287D01*
X143264286Y-99078573D01*
X143378571Y-99135716D01*
X143492857Y-99135716D01*
X143607143Y-99078573D01*
X143664286Y-98964287D01*
X143664286Y-98678573D01*
X143721429Y-98564287D01*
X143207143Y-97992859D02*
X144407143Y-97992859D01*
X143950000Y-97992859D02*
X144007143Y-97878573D01*
X144007143Y-97650002D01*
X143950000Y-97535716D01*
X143892857Y-97478573D01*
X143778571Y-97421430D01*
X143435714Y-97421430D01*
X143321429Y-97478573D01*
X143264286Y-97535716D01*
X143207143Y-97650002D01*
X143207143Y-97878573D01*
X143264286Y-97992859D01*
X143264286Y-96964288D02*
X143207143Y-96850002D01*
X143207143Y-96621430D01*
X143264286Y-96507145D01*
X143378571Y-96450002D01*
X143435714Y-96450002D01*
X143550000Y-96507145D01*
X143607143Y-96621430D01*
X143607143Y-96792859D01*
X143664286Y-96907145D01*
X143778571Y-96964288D01*
X143835714Y-96964288D01*
X143950000Y-96907145D01*
X144007143Y-96792859D01*
X144007143Y-96621430D01*
X143950000Y-96507145D01*
X143207143Y-94450001D02*
X143207143Y-95021430D01*
X144407143Y-95021430D01*
X143207143Y-93478572D02*
X143207143Y-94050001D01*
X144407143Y-94050001D01*
X143321429Y-92392857D02*
X143264286Y-92450000D01*
X143207143Y-92621429D01*
X143207143Y-92735715D01*
X143264286Y-92907143D01*
X143378571Y-93021429D01*
X143492857Y-93078572D01*
X143721429Y-93135715D01*
X143892857Y-93135715D01*
X144121429Y-93078572D01*
X144235714Y-93021429D01*
X144350000Y-92907143D01*
X144407143Y-92735715D01*
X144407143Y-92621429D01*
X144350000Y-92450000D01*
X144292857Y-92392857D01*
X144292857Y-91021429D02*
X144350000Y-90964286D01*
X144407143Y-90850000D01*
X144407143Y-90564286D01*
X144350000Y-90450000D01*
X144292857Y-90392857D01*
X144178571Y-90335714D01*
X144064286Y-90335714D01*
X143892857Y-90392857D01*
X143207143Y-91078571D01*
X143207143Y-90335714D01*
X144407143Y-89592857D02*
X144407143Y-89478572D01*
X144350000Y-89364286D01*
X144292857Y-89307143D01*
X144178571Y-89250000D01*
X143950000Y-89192857D01*
X143664286Y-89192857D01*
X143435714Y-89250000D01*
X143321429Y-89307143D01*
X143264286Y-89364286D01*
X143207143Y-89478572D01*
X143207143Y-89592857D01*
X143264286Y-89707143D01*
X143321429Y-89764286D01*
X143435714Y-89821429D01*
X143664286Y-89878572D01*
X143950000Y-89878572D01*
X144178571Y-89821429D01*
X144292857Y-89764286D01*
X144350000Y-89707143D01*
X144407143Y-89592857D01*
X143207143Y-88050000D02*
X143207143Y-88735715D01*
X143207143Y-88392857D02*
X144407143Y-88392857D01*
X144235714Y-88507143D01*
X144121429Y-88621429D01*
X144064286Y-88735715D01*
X144407143Y-87650000D02*
X144407143Y-86850000D01*
X143207143Y-87364286D01*
X141207143Y-108564286D02*
X142407143Y-108564286D01*
X141207143Y-108050000D02*
X141835714Y-108050000D01*
X141950000Y-108107143D01*
X142007143Y-108221429D01*
X142007143Y-108392857D01*
X141950000Y-108507143D01*
X141892857Y-108564286D01*
X142007143Y-107650000D02*
X142007143Y-107192857D01*
X142407143Y-107478572D02*
X141378571Y-107478572D01*
X141264286Y-107421429D01*
X141207143Y-107307143D01*
X141207143Y-107192857D01*
X142007143Y-106964286D02*
X142007143Y-106507143D01*
X142407143Y-106792858D02*
X141378571Y-106792858D01*
X141264286Y-106735715D01*
X141207143Y-106621429D01*
X141207143Y-106507143D01*
X142007143Y-106107144D02*
X140807143Y-106107144D01*
X141950000Y-106107144D02*
X142007143Y-105992858D01*
X142007143Y-105764287D01*
X141950000Y-105650001D01*
X141892857Y-105592858D01*
X141778571Y-105535715D01*
X141435714Y-105535715D01*
X141321429Y-105592858D01*
X141264286Y-105650001D01*
X141207143Y-105764287D01*
X141207143Y-105992858D01*
X141264286Y-106107144D01*
X141321429Y-105021430D02*
X141264286Y-104964287D01*
X141207143Y-105021430D01*
X141264286Y-105078573D01*
X141321429Y-105021430D01*
X141207143Y-105021430D01*
X141950000Y-105021430D02*
X141892857Y-104964287D01*
X141835714Y-105021430D01*
X141892857Y-105078573D01*
X141950000Y-105021430D01*
X141835714Y-105021430D01*
X142464286Y-103592858D02*
X140921429Y-104621429D01*
X142464286Y-102335715D02*
X140921429Y-103364286D01*
X142007143Y-101935715D02*
X140807143Y-101935715D01*
X141950000Y-101935715D02*
X142007143Y-101821429D01*
X142007143Y-101592858D01*
X141950000Y-101478572D01*
X141892857Y-101421429D01*
X141778571Y-101364286D01*
X141435714Y-101364286D01*
X141321429Y-101421429D01*
X141264286Y-101478572D01*
X141207143Y-101592858D01*
X141207143Y-101821429D01*
X141264286Y-101935715D01*
X141207143Y-100678572D02*
X141264286Y-100792858D01*
X141378571Y-100850001D01*
X142407143Y-100850001D01*
X142007143Y-99707144D02*
X141207143Y-99707144D01*
X142007143Y-100221430D02*
X141378571Y-100221430D01*
X141264286Y-100164287D01*
X141207143Y-100050001D01*
X141207143Y-99878573D01*
X141264286Y-99764287D01*
X141321429Y-99707144D01*
X142007143Y-98621430D02*
X141035714Y-98621430D01*
X140921429Y-98678573D01*
X140864286Y-98735716D01*
X140807143Y-98850001D01*
X140807143Y-99021430D01*
X140864286Y-99135716D01*
X141264286Y-98621430D02*
X141207143Y-98735716D01*
X141207143Y-98964287D01*
X141264286Y-99078573D01*
X141321429Y-99135716D01*
X141435714Y-99192859D01*
X141778571Y-99192859D01*
X141892857Y-99135716D01*
X141950000Y-99078573D01*
X142007143Y-98964287D01*
X142007143Y-98735716D01*
X141950000Y-98621430D01*
X142007143Y-97535716D02*
X141035714Y-97535716D01*
X140921429Y-97592859D01*
X140864286Y-97650002D01*
X140807143Y-97764287D01*
X140807143Y-97935716D01*
X140864286Y-98050002D01*
X141264286Y-97535716D02*
X141207143Y-97650002D01*
X141207143Y-97878573D01*
X141264286Y-97992859D01*
X141321429Y-98050002D01*
X141435714Y-98107145D01*
X141778571Y-98107145D01*
X141892857Y-98050002D01*
X141950000Y-97992859D01*
X142007143Y-97878573D01*
X142007143Y-97650002D01*
X141950000Y-97535716D01*
X141321429Y-96964288D02*
X141264286Y-96907145D01*
X141207143Y-96964288D01*
X141264286Y-97021431D01*
X141321429Y-96964288D01*
X141207143Y-96964288D01*
X141264286Y-95935716D02*
X141207143Y-96050002D01*
X141207143Y-96278573D01*
X141264286Y-96392859D01*
X141378571Y-96450002D01*
X141835714Y-96450002D01*
X141950000Y-96392859D01*
X142007143Y-96278573D01*
X142007143Y-96050002D01*
X141950000Y-95935716D01*
X141835714Y-95878573D01*
X141721429Y-95878573D01*
X141607143Y-96450002D01*
X141264286Y-94907145D02*
X141207143Y-95021431D01*
X141207143Y-95250002D01*
X141264286Y-95364288D01*
X141378571Y-95421431D01*
X141835714Y-95421431D01*
X141950000Y-95364288D01*
X142007143Y-95250002D01*
X142007143Y-95021431D01*
X141950000Y-94907145D01*
X141835714Y-94850002D01*
X141721429Y-94850002D01*
X141607143Y-95421431D01*
D12*
X128000000Y-84760000D02*
X129100000Y-84760000D01*
X129100000Y-84760000D02*
X129100000Y-90560000D01*
X129100000Y-90560000D02*
X129100000Y-95960000D01*
X129100000Y-95960000D02*
X129100000Y-99560000D01*
X129100000Y-99560000D02*
X129100000Y-113560000D01*
X129100000Y-113560000D02*
X129100000Y-124060000D01*
X129100000Y-124060000D02*
X129100000Y-125260000D01*
X129100000Y-125260000D02*
X128000000Y-125260000D01*
D13*
G36*
X147672447Y-110262500D02*
X147000251Y-110808154D01*
X147000250Y-112675316D01*
X147000250Y-114542478D01*
X147109474Y-114606922D01*
X147195927Y-114675030D01*
X147280637Y-114767813D01*
X147303830Y-114800009D01*
X147352706Y-114883485D01*
X147375634Y-114959427D01*
X147378874Y-115055958D01*
X147375112Y-115120128D01*
X147333311Y-115308349D01*
X147241349Y-115463166D01*
X147105440Y-115577432D01*
X146931796Y-115643997D01*
X146917327Y-115646886D01*
X146737138Y-115653812D01*
X146579105Y-115609712D01*
X146447100Y-115524185D01*
X146344997Y-115406833D01*
X146276667Y-115267255D01*
X146245984Y-115115054D01*
X146256820Y-114959829D01*
X146313047Y-114811180D01*
X146418539Y-114678709D01*
X146501041Y-114614869D01*
X146619251Y-114538112D01*
X146619251Y-112811182D01*
X146618983Y-112423526D01*
X146618114Y-112095233D01*
X146616550Y-111822165D01*
X146614192Y-111600187D01*
X146610945Y-111425163D01*
X146606712Y-111292958D01*
X146601397Y-111199434D01*
X146594903Y-111140457D01*
X146587134Y-111111890D01*
X146579563Y-111108362D01*
X146544591Y-111134229D01*
X146467368Y-111194131D01*
X146355153Y-111282344D01*
X146215207Y-111393143D01*
X146054789Y-111520806D01*
X145928688Y-111621550D01*
X145317501Y-112110628D01*
X145317701Y-114147252D01*
X145317902Y-116183875D01*
X145412289Y-116237581D01*
X145529425Y-116338321D01*
X145611213Y-116477441D01*
X145651940Y-116637161D01*
X145645894Y-116799702D01*
X145620207Y-116884714D01*
X145516676Y-117057453D01*
X145370744Y-117183403D01*
X145264947Y-117235195D01*
X145094751Y-117270659D01*
X144930993Y-117252296D01*
X144782253Y-117188380D01*
X144657110Y-117087186D01*
X144564144Y-116956989D01*
X144511933Y-116806062D01*
X144509058Y-116642682D01*
X144537690Y-116533774D01*
X144583727Y-116447494D01*
X144653803Y-116352559D01*
X144733934Y-116264218D01*
X144810138Y-116197720D01*
X144868431Y-116168316D01*
X144873092Y-116168000D01*
X144880164Y-116136386D01*
X144886369Y-116042075D01*
X144891695Y-115885865D01*
X144896129Y-115668552D01*
X144899660Y-115390935D01*
X144902275Y-115053810D01*
X144903963Y-114657975D01*
X144904711Y-114204228D01*
X144904750Y-114062825D01*
X144904751Y-111957649D01*
X146003648Y-111110075D01*
X147102545Y-110262500D01*
X144022624Y-110262500D01*
X143591259Y-110619688D01*
X143159895Y-110976875D01*
X143159198Y-113109601D01*
X143158500Y-115242326D01*
X143264388Y-115277272D01*
X143407494Y-115354262D01*
X143511875Y-115470144D01*
X143576737Y-115612884D01*
X143601285Y-115770448D01*
X143584726Y-115930803D01*
X143526265Y-116081914D01*
X143425109Y-116211747D01*
X143330709Y-116282220D01*
X143160196Y-116349746D01*
X142989812Y-116360084D01*
X142829869Y-116318724D01*
X142690684Y-116231155D01*
X142582571Y-116102868D01*
X142515843Y-115939351D01*
X142500801Y-115840516D01*
X142517643Y-115659079D01*
X142592714Y-115498994D01*
X142722355Y-115367408D01*
X142754541Y-115345119D01*
X142872750Y-115268362D01*
X142872750Y-113037106D01*
X142872811Y-112606370D01*
X142873069Y-112234689D01*
X142873639Y-111917619D01*
X142874634Y-111650714D01*
X142876169Y-111429532D01*
X142878358Y-111249626D01*
X142881315Y-111106552D01*
X142885155Y-110995866D01*
X142889991Y-110913123D01*
X142895938Y-110853878D01*
X142903109Y-110813687D01*
X142911620Y-110788105D01*
X142921584Y-110772687D01*
X142931127Y-110764363D01*
X142978175Y-110726080D01*
X143058935Y-110655603D01*
X143160742Y-110564118D01*
X143238702Y-110492688D01*
X143487902Y-110262500D01*
X140840750Y-110262500D01*
X140840750Y-126137500D01*
X142311804Y-126137500D01*
X142872750Y-125709706D01*
X142872750Y-123831240D01*
X142872751Y-121952773D01*
X142763527Y-121888329D01*
X142622150Y-121771643D01*
X142527787Y-121623244D01*
X142484036Y-121455893D01*
X142494494Y-121282352D01*
X142551183Y-121135025D01*
X142664482Y-120985920D01*
X142806877Y-120892871D01*
X142981958Y-120853784D01*
X143035615Y-120852212D01*
X143152840Y-120858491D01*
X143236471Y-120881995D01*
X143315953Y-120932280D01*
X143339458Y-120950828D01*
X143471885Y-121081344D01*
X143548707Y-121219707D01*
X143577438Y-121380728D01*
X143578046Y-121421213D01*
X143551701Y-121602840D01*
X143480580Y-121755673D01*
X143371355Y-121869787D01*
X143232717Y-121934757D01*
X143158500Y-121953384D01*
X143158500Y-123680317D01*
X143158850Y-124004828D01*
X143159856Y-124309463D01*
X143161453Y-124588460D01*
X143163574Y-124836056D01*
X143166155Y-125046485D01*
X143169131Y-125213986D01*
X143172435Y-125332794D01*
X143176001Y-125397146D01*
X143178124Y-125407251D01*
X143207873Y-125389178D01*
X143281872Y-125338199D01*
X143393323Y-125259177D01*
X143535425Y-125156972D01*
X143701381Y-125036444D01*
X143884391Y-124902454D01*
X143892499Y-124896495D01*
X144587250Y-124385739D01*
X144587250Y-120325889D01*
X144509025Y-120290247D01*
X144426346Y-120227738D01*
X144342388Y-120124235D01*
X144271664Y-120000249D01*
X144235250Y-119903337D01*
X144222016Y-119745731D01*
X144262533Y-119593042D01*
X144347237Y-119455042D01*
X144466565Y-119341503D01*
X144610952Y-119262197D01*
X144770835Y-119226896D01*
X144890105Y-119234201D01*
X145056773Y-119294207D01*
X145195820Y-119399417D01*
X145299435Y-119537729D01*
X145359809Y-119697039D01*
X145369130Y-119865245D01*
X145351926Y-119949840D01*
X145303082Y-120059360D01*
X145228669Y-120168986D01*
X145144309Y-120259232D01*
X145065628Y-120310612D01*
X145061545Y-120311996D01*
X145049345Y-120317415D01*
X145038873Y-120328380D01*
X145029997Y-120349438D01*
X145022586Y-120385134D01*
X145016507Y-120440013D01*
X145011630Y-120518623D01*
X145007820Y-120625507D01*
X145004948Y-120765212D01*
X145002881Y-120942284D01*
X145001487Y-121161268D01*
X145000633Y-121426711D01*
X145000189Y-121743157D01*
X145000023Y-122115152D01*
X145000000Y-122432906D01*
X145000000Y-124534282D01*
X143994259Y-125296204D01*
X143771798Y-125464754D01*
X143563908Y-125622305D01*
X143376324Y-125764506D01*
X143214784Y-125887006D01*
X143085025Y-125985453D01*
X142992783Y-126055499D01*
X142943797Y-126092791D01*
X142938571Y-126096803D01*
X142936946Y-126107366D01*
X142965271Y-126115970D01*
X143028396Y-126122793D01*
X143131168Y-126128017D01*
X143278440Y-126131821D01*
X143475059Y-126134385D01*
X143725875Y-126135889D01*
X144007813Y-126136491D01*
X145127000Y-126137500D01*
X145127000Y-125538640D01*
X145919663Y-124861758D01*
X146712326Y-124184875D01*
X146713413Y-122036949D01*
X146714501Y-119889023D01*
X146605277Y-119824579D01*
X146469556Y-119711671D01*
X146373267Y-119563986D01*
X146326564Y-119398946D01*
X146323789Y-119341587D01*
X146351361Y-119169591D01*
X146431996Y-119019933D01*
X146562438Y-118889389D01*
X146712563Y-118804399D01*
X146873662Y-118774047D01*
X147034858Y-118793346D01*
X147185273Y-118857311D01*
X147314027Y-118960959D01*
X147410244Y-119099304D01*
X147463044Y-119267361D01*
X147467437Y-119304094D01*
X147454635Y-119465806D01*
X147395068Y-119621591D01*
X147298656Y-119750438D01*
X147231661Y-119803375D01*
X147129697Y-119866875D01*
X147128474Y-122093755D01*
X147127250Y-124320634D01*
X146317625Y-125011924D01*
X145508000Y-125703215D01*
X145508000Y-126137500D01*
X149159250Y-126137500D01*
X149159250Y-110262500D01*
X147672447Y-110262500D01*
X147672447Y-110262500D01*
G37*
X147672447Y-110262500D02*
X147000251Y-110808154D01*
X147000250Y-112675316D01*
X147000250Y-114542478D01*
X147109474Y-114606922D01*
X147195927Y-114675030D01*
X147280637Y-114767813D01*
X147303830Y-114800009D01*
X147352706Y-114883485D01*
X147375634Y-114959427D01*
X147378874Y-115055958D01*
X147375112Y-115120128D01*
X147333311Y-115308349D01*
X147241349Y-115463166D01*
X147105440Y-115577432D01*
X146931796Y-115643997D01*
X146917327Y-115646886D01*
X146737138Y-115653812D01*
X146579105Y-115609712D01*
X146447100Y-115524185D01*
X146344997Y-115406833D01*
X146276667Y-115267255D01*
X146245984Y-115115054D01*
X146256820Y-114959829D01*
X146313047Y-114811180D01*
X146418539Y-114678709D01*
X146501041Y-114614869D01*
X146619251Y-114538112D01*
X146619251Y-112811182D01*
X146618983Y-112423526D01*
X146618114Y-112095233D01*
X146616550Y-111822165D01*
X146614192Y-111600187D01*
X146610945Y-111425163D01*
X146606712Y-111292958D01*
X146601397Y-111199434D01*
X146594903Y-111140457D01*
X146587134Y-111111890D01*
X146579563Y-111108362D01*
X146544591Y-111134229D01*
X146467368Y-111194131D01*
X146355153Y-111282344D01*
X146215207Y-111393143D01*
X146054789Y-111520806D01*
X145928688Y-111621550D01*
X145317501Y-112110628D01*
X145317701Y-114147252D01*
X145317902Y-116183875D01*
X145412289Y-116237581D01*
X145529425Y-116338321D01*
X145611213Y-116477441D01*
X145651940Y-116637161D01*
X145645894Y-116799702D01*
X145620207Y-116884714D01*
X145516676Y-117057453D01*
X145370744Y-117183403D01*
X145264947Y-117235195D01*
X145094751Y-117270659D01*
X144930993Y-117252296D01*
X144782253Y-117188380D01*
X144657110Y-117087186D01*
X144564144Y-116956989D01*
X144511933Y-116806062D01*
X144509058Y-116642682D01*
X144537690Y-116533774D01*
X144583727Y-116447494D01*
X144653803Y-116352559D01*
X144733934Y-116264218D01*
X144810138Y-116197720D01*
X144868431Y-116168316D01*
X144873092Y-116168000D01*
X144880164Y-116136386D01*
X144886369Y-116042075D01*
X144891695Y-115885865D01*
X144896129Y-115668552D01*
X144899660Y-115390935D01*
X144902275Y-115053810D01*
X144903963Y-114657975D01*
X144904711Y-114204228D01*
X144904750Y-114062825D01*
X144904751Y-111957649D01*
X146003648Y-111110075D01*
X147102545Y-110262500D01*
X144022624Y-110262500D01*
X143591259Y-110619688D01*
X143159895Y-110976875D01*
X143159198Y-113109601D01*
X143158500Y-115242326D01*
X143264388Y-115277272D01*
X143407494Y-115354262D01*
X143511875Y-115470144D01*
X143576737Y-115612884D01*
X143601285Y-115770448D01*
X143584726Y-115930803D01*
X143526265Y-116081914D01*
X143425109Y-116211747D01*
X143330709Y-116282220D01*
X143160196Y-116349746D01*
X142989812Y-116360084D01*
X142829869Y-116318724D01*
X142690684Y-116231155D01*
X142582571Y-116102868D01*
X142515843Y-115939351D01*
X142500801Y-115840516D01*
X142517643Y-115659079D01*
X142592714Y-115498994D01*
X142722355Y-115367408D01*
X142754541Y-115345119D01*
X142872750Y-115268362D01*
X142872750Y-113037106D01*
X142872811Y-112606370D01*
X142873069Y-112234689D01*
X142873639Y-111917619D01*
X142874634Y-111650714D01*
X142876169Y-111429532D01*
X142878358Y-111249626D01*
X142881315Y-111106552D01*
X142885155Y-110995866D01*
X142889991Y-110913123D01*
X142895938Y-110853878D01*
X142903109Y-110813687D01*
X142911620Y-110788105D01*
X142921584Y-110772687D01*
X142931127Y-110764363D01*
X142978175Y-110726080D01*
X143058935Y-110655603D01*
X143160742Y-110564118D01*
X143238702Y-110492688D01*
X143487902Y-110262500D01*
X140840750Y-110262500D01*
X140840750Y-126137500D01*
X142311804Y-126137500D01*
X142872750Y-125709706D01*
X142872750Y-123831240D01*
X142872751Y-121952773D01*
X142763527Y-121888329D01*
X142622150Y-121771643D01*
X142527787Y-121623244D01*
X142484036Y-121455893D01*
X142494494Y-121282352D01*
X142551183Y-121135025D01*
X142664482Y-120985920D01*
X142806877Y-120892871D01*
X142981958Y-120853784D01*
X143035615Y-120852212D01*
X143152840Y-120858491D01*
X143236471Y-120881995D01*
X143315953Y-120932280D01*
X143339458Y-120950828D01*
X143471885Y-121081344D01*
X143548707Y-121219707D01*
X143577438Y-121380728D01*
X143578046Y-121421213D01*
X143551701Y-121602840D01*
X143480580Y-121755673D01*
X143371355Y-121869787D01*
X143232717Y-121934757D01*
X143158500Y-121953384D01*
X143158500Y-123680317D01*
X143158850Y-124004828D01*
X143159856Y-124309463D01*
X143161453Y-124588460D01*
X143163574Y-124836056D01*
X143166155Y-125046485D01*
X143169131Y-125213986D01*
X143172435Y-125332794D01*
X143176001Y-125397146D01*
X143178124Y-125407251D01*
X143207873Y-125389178D01*
X143281872Y-125338199D01*
X143393323Y-125259177D01*
X143535425Y-125156972D01*
X143701381Y-125036444D01*
X143884391Y-124902454D01*
X143892499Y-124896495D01*
X144587250Y-124385739D01*
X144587250Y-120325889D01*
X144509025Y-120290247D01*
X144426346Y-120227738D01*
X144342388Y-120124235D01*
X144271664Y-120000249D01*
X144235250Y-119903337D01*
X144222016Y-119745731D01*
X144262533Y-119593042D01*
X144347237Y-119455042D01*
X144466565Y-119341503D01*
X144610952Y-119262197D01*
X144770835Y-119226896D01*
X144890105Y-119234201D01*
X145056773Y-119294207D01*
X145195820Y-119399417D01*
X145299435Y-119537729D01*
X145359809Y-119697039D01*
X145369130Y-119865245D01*
X145351926Y-119949840D01*
X145303082Y-120059360D01*
X145228669Y-120168986D01*
X145144309Y-120259232D01*
X145065628Y-120310612D01*
X145061545Y-120311996D01*
X145049345Y-120317415D01*
X145038873Y-120328380D01*
X145029997Y-120349438D01*
X145022586Y-120385134D01*
X145016507Y-120440013D01*
X145011630Y-120518623D01*
X145007820Y-120625507D01*
X145004948Y-120765212D01*
X145002881Y-120942284D01*
X145001487Y-121161268D01*
X145000633Y-121426711D01*
X145000189Y-121743157D01*
X145000023Y-122115152D01*
X145000000Y-122432906D01*
X145000000Y-124534282D01*
X143994259Y-125296204D01*
X143771798Y-125464754D01*
X143563908Y-125622305D01*
X143376324Y-125764506D01*
X143214784Y-125887006D01*
X143085025Y-125985453D01*
X142992783Y-126055499D01*
X142943797Y-126092791D01*
X142938571Y-126096803D01*
X142936946Y-126107366D01*
X142965271Y-126115970D01*
X143028396Y-126122793D01*
X143131168Y-126128017D01*
X143278440Y-126131821D01*
X143475059Y-126134385D01*
X143725875Y-126135889D01*
X144007813Y-126136491D01*
X145127000Y-126137500D01*
X145127000Y-125538640D01*
X145919663Y-124861758D01*
X146712326Y-124184875D01*
X146713413Y-122036949D01*
X146714501Y-119889023D01*
X146605277Y-119824579D01*
X146469556Y-119711671D01*
X146373267Y-119563986D01*
X146326564Y-119398946D01*
X146323789Y-119341587D01*
X146351361Y-119169591D01*
X146431996Y-119019933D01*
X146562438Y-118889389D01*
X146712563Y-118804399D01*
X146873662Y-118774047D01*
X147034858Y-118793346D01*
X147185273Y-118857311D01*
X147314027Y-118960959D01*
X147410244Y-119099304D01*
X147463044Y-119267361D01*
X147467437Y-119304094D01*
X147454635Y-119465806D01*
X147395068Y-119621591D01*
X147298656Y-119750438D01*
X147231661Y-119803375D01*
X147129697Y-119866875D01*
X147128474Y-122093755D01*
X147127250Y-124320634D01*
X146317625Y-125011924D01*
X145508000Y-125703215D01*
X145508000Y-126137500D01*
X149159250Y-126137500D01*
X149159250Y-110262500D01*
X147672447Y-110262500D01*
D14*
X133450000Y-80416667D02*
X133450000Y-80983333D01*
X133416667Y-81050000D01*
X133383334Y-81083333D01*
X133316667Y-81116667D01*
X133183334Y-81116667D01*
X133116667Y-81083333D01*
X133083334Y-81050000D01*
X133050000Y-80983333D01*
X133050000Y-80416667D01*
X132750001Y-81083333D02*
X132650001Y-81116667D01*
X132483334Y-81116667D01*
X132416667Y-81083333D01*
X132383334Y-81050000D01*
X132350001Y-80983333D01*
X132350001Y-80916667D01*
X132383334Y-80850000D01*
X132416667Y-80816667D01*
X132483334Y-80783333D01*
X132616667Y-80750000D01*
X132683334Y-80716667D01*
X132716667Y-80683333D01*
X132750001Y-80616667D01*
X132750001Y-80550000D01*
X132716667Y-80483333D01*
X132683334Y-80450000D01*
X132616667Y-80416667D01*
X132450001Y-80416667D01*
X132350001Y-80450000D01*
X131816667Y-80750000D02*
X131716667Y-80783333D01*
X131683334Y-80816667D01*
X131650000Y-80883333D01*
X131650000Y-80983333D01*
X131683334Y-81050000D01*
X131716667Y-81083333D01*
X131783334Y-81116667D01*
X132050000Y-81116667D01*
X132050000Y-80416667D01*
X131816667Y-80416667D01*
X131750000Y-80450000D01*
X131716667Y-80483333D01*
X131683334Y-80550000D01*
X131683334Y-80616667D01*
X131716667Y-80683333D01*
X131750000Y-80716667D01*
X131816667Y-80750000D01*
X132050000Y-80750000D01*
X130983334Y-81116667D02*
X131383334Y-81116667D01*
X131183334Y-81116667D02*
X131183334Y-80416667D01*
X131250000Y-80516667D01*
X131316667Y-80583333D01*
X131383334Y-80616667D01*
X130683333Y-80850000D02*
X130150000Y-80850000D01*
X130416667Y-81116667D02*
X130416667Y-80583333D01*
X133450000Y-82916667D02*
X133450000Y-83483333D01*
X133416667Y-83550000D01*
X133383334Y-83583333D01*
X133316667Y-83616667D01*
X133183334Y-83616667D01*
X133116667Y-83583333D01*
X133083334Y-83550000D01*
X133050000Y-83483333D01*
X133050000Y-82916667D01*
X132750001Y-83583333D02*
X132650001Y-83616667D01*
X132483334Y-83616667D01*
X132416667Y-83583333D01*
X132383334Y-83550000D01*
X132350001Y-83483333D01*
X132350001Y-83416667D01*
X132383334Y-83350000D01*
X132416667Y-83316667D01*
X132483334Y-83283333D01*
X132616667Y-83250000D01*
X132683334Y-83216667D01*
X132716667Y-83183333D01*
X132750001Y-83116667D01*
X132750001Y-83050000D01*
X132716667Y-82983333D01*
X132683334Y-82950000D01*
X132616667Y-82916667D01*
X132450001Y-82916667D01*
X132350001Y-82950000D01*
X131816667Y-83250000D02*
X131716667Y-83283333D01*
X131683334Y-83316667D01*
X131650000Y-83383333D01*
X131650000Y-83483333D01*
X131683334Y-83550000D01*
X131716667Y-83583333D01*
X131783334Y-83616667D01*
X132050000Y-83616667D01*
X132050000Y-82916667D01*
X131816667Y-82916667D01*
X131750000Y-82950000D01*
X131716667Y-82983333D01*
X131683334Y-83050000D01*
X131683334Y-83116667D01*
X131716667Y-83183333D01*
X131750000Y-83216667D01*
X131816667Y-83250000D01*
X132050000Y-83250000D01*
X130983334Y-83616667D02*
X131383334Y-83616667D01*
X131183334Y-83616667D02*
X131183334Y-82916667D01*
X131250000Y-83016667D01*
X131316667Y-83083333D01*
X131383334Y-83116667D01*
X130683333Y-83350000D02*
X130150000Y-83350000D01*
X132750000Y-124316667D02*
X132750000Y-123616667D01*
X132483334Y-123616667D01*
X132416667Y-123650000D01*
X132383334Y-123683333D01*
X132350000Y-123750000D01*
X132350000Y-123850000D01*
X132383334Y-123916667D01*
X132416667Y-123950000D01*
X132483334Y-123983333D01*
X132750000Y-123983333D01*
X131916667Y-123616667D02*
X131850000Y-123616667D01*
X131783334Y-123650000D01*
X131750000Y-123683333D01*
X131716667Y-123750000D01*
X131683334Y-123883333D01*
X131683334Y-124050000D01*
X131716667Y-124183333D01*
X131750000Y-124250000D01*
X131783334Y-124283333D01*
X131850000Y-124316667D01*
X131916667Y-124316667D01*
X131983334Y-124283333D01*
X132016667Y-124250000D01*
X132050000Y-124183333D01*
X132083334Y-124050000D01*
X132083334Y-123883333D01*
X132050000Y-123750000D01*
X132016667Y-123683333D01*
X131983334Y-123650000D01*
X131916667Y-123616667D01*
X131183333Y-124550000D02*
X131350000Y-124550000D01*
X131350000Y-123550000D01*
X131183333Y-123550000D01*
X130950000Y-123683333D02*
X130916666Y-123650000D01*
X130850000Y-123616667D01*
X130683333Y-123616667D01*
X130616666Y-123650000D01*
X130583333Y-123683333D01*
X130550000Y-123750000D01*
X130550000Y-123816667D01*
X130583333Y-123916667D01*
X130983333Y-124316667D01*
X130550000Y-124316667D01*
X129916666Y-123616667D02*
X130249999Y-123616667D01*
X130283333Y-123950000D01*
X130249999Y-123916667D01*
X130183333Y-123883333D01*
X130016666Y-123883333D01*
X129949999Y-123916667D01*
X129916666Y-123950000D01*
X129883333Y-124016667D01*
X129883333Y-124183333D01*
X129916666Y-124250000D01*
X129949999Y-124283333D01*
X130016666Y-124316667D01*
X130183333Y-124316667D01*
X130249999Y-124283333D01*
X130283333Y-124250000D01*
X129649999Y-124550000D02*
X129483332Y-124550000D01*
X129483332Y-123550000D01*
X129649999Y-123550000D01*
X132750000Y-121816667D02*
X132750000Y-121116667D01*
X132483334Y-121116667D01*
X132416667Y-121150000D01*
X132383334Y-121183333D01*
X132350000Y-121250000D01*
X132350000Y-121350000D01*
X132383334Y-121416667D01*
X132416667Y-121450000D01*
X132483334Y-121483333D01*
X132750000Y-121483333D01*
X131916667Y-121116667D02*
X131850000Y-121116667D01*
X131783334Y-121150000D01*
X131750000Y-121183333D01*
X131716667Y-121250000D01*
X131683334Y-121383333D01*
X131683334Y-121550000D01*
X131716667Y-121683333D01*
X131750000Y-121750000D01*
X131783334Y-121783333D01*
X131850000Y-121816667D01*
X131916667Y-121816667D01*
X131983334Y-121783333D01*
X132016667Y-121750000D01*
X132050000Y-121683333D01*
X132083334Y-121550000D01*
X132083334Y-121383333D01*
X132050000Y-121250000D01*
X132016667Y-121183333D01*
X131983334Y-121150000D01*
X131916667Y-121116667D01*
X131183333Y-122050000D02*
X131350000Y-122050000D01*
X131350000Y-121050000D01*
X131183333Y-121050000D01*
X130950000Y-121183333D02*
X130916666Y-121150000D01*
X130850000Y-121116667D01*
X130683333Y-121116667D01*
X130616666Y-121150000D01*
X130583333Y-121183333D01*
X130550000Y-121250000D01*
X130550000Y-121316667D01*
X130583333Y-121416667D01*
X130983333Y-121816667D01*
X130550000Y-121816667D01*
X129949999Y-121116667D02*
X130083333Y-121116667D01*
X130149999Y-121150000D01*
X130183333Y-121183333D01*
X130249999Y-121283333D01*
X130283333Y-121416667D01*
X130283333Y-121683333D01*
X130249999Y-121750000D01*
X130216666Y-121783333D01*
X130149999Y-121816667D01*
X130016666Y-121816667D01*
X129949999Y-121783333D01*
X129916666Y-121750000D01*
X129883333Y-121683333D01*
X129883333Y-121516667D01*
X129916666Y-121450000D01*
X129949999Y-121416667D01*
X130016666Y-121383333D01*
X130149999Y-121383333D01*
X130216666Y-121416667D01*
X130249999Y-121450000D01*
X130283333Y-121516667D01*
X129649999Y-122050000D02*
X129483332Y-122050000D01*
X129483332Y-121050000D01*
X129649999Y-121050000D01*
X134600001Y-119271429D02*
X134600001Y-118671429D01*
X134371429Y-118671429D01*
X134314287Y-118700000D01*
X134285715Y-118728571D01*
X134257144Y-118785714D01*
X134257144Y-118871429D01*
X134285715Y-118928571D01*
X134314287Y-118957143D01*
X134371429Y-118985714D01*
X134600001Y-118985714D01*
X133885715Y-118671429D02*
X133828572Y-118671429D01*
X133771429Y-118700000D01*
X133742858Y-118728571D01*
X133714287Y-118785714D01*
X133685715Y-118900000D01*
X133685715Y-119042857D01*
X133714287Y-119157143D01*
X133742858Y-119214286D01*
X133771429Y-119242857D01*
X133828572Y-119271429D01*
X133885715Y-119271429D01*
X133942858Y-119242857D01*
X133971429Y-119214286D01*
X134000001Y-119157143D01*
X134028572Y-119042857D01*
X134028572Y-118900000D01*
X134000001Y-118785714D01*
X133971429Y-118728571D01*
X133942858Y-118700000D01*
X133885715Y-118671429D01*
X133257143Y-119471429D02*
X133400000Y-119471429D01*
X133400000Y-118614286D01*
X133257143Y-118614286D01*
X133057143Y-118728571D02*
X133028572Y-118700000D01*
X132971429Y-118671429D01*
X132828572Y-118671429D01*
X132771429Y-118700000D01*
X132742858Y-118728571D01*
X132714286Y-118785714D01*
X132714286Y-118842857D01*
X132742858Y-118928571D01*
X133085715Y-119271429D01*
X132714286Y-119271429D01*
X132514286Y-119471429D02*
X132371429Y-119471429D01*
X132371429Y-118614286D01*
X132514286Y-118614286D01*
X132057143Y-119042857D02*
X131600000Y-119042857D01*
X131400000Y-118671429D02*
X131057143Y-118671429D01*
X131228572Y-119271429D02*
X131228572Y-118671429D01*
X130914286Y-118671429D02*
X130514286Y-119271429D01*
X130514286Y-118671429D02*
X130914286Y-119271429D01*
X130285714Y-119271429D02*
X130285714Y-118671429D01*
X130142857Y-118671429D01*
X130057142Y-118700000D01*
X130000000Y-118757143D01*
X129971428Y-118814286D01*
X129942857Y-118928571D01*
X129942857Y-119014286D01*
X129971428Y-119128571D01*
X130000000Y-119185714D01*
X130057142Y-119242857D01*
X130142857Y-119271429D01*
X130285714Y-119271429D01*
X129571428Y-118671429D02*
X129514285Y-118671429D01*
X129457142Y-118700000D01*
X129428571Y-118728571D01*
X129400000Y-118785714D01*
X129371428Y-118900000D01*
X129371428Y-119042857D01*
X129400000Y-119157143D01*
X129428571Y-119214286D01*
X129457142Y-119242857D01*
X129514285Y-119271429D01*
X129571428Y-119271429D01*
X129628571Y-119242857D01*
X129657142Y-119214286D01*
X129685714Y-119157143D01*
X129714285Y-119042857D01*
X129714285Y-118900000D01*
X129685714Y-118785714D01*
X129657142Y-118728571D01*
X129628571Y-118700000D01*
X129571428Y-118671429D01*
X134771429Y-116671429D02*
X134771429Y-116071429D01*
X134542857Y-116071429D01*
X134485715Y-116100000D01*
X134457143Y-116128571D01*
X134428572Y-116185714D01*
X134428572Y-116271429D01*
X134457143Y-116328571D01*
X134485715Y-116357143D01*
X134542857Y-116385714D01*
X134771429Y-116385714D01*
X134057143Y-116071429D02*
X134000000Y-116071429D01*
X133942857Y-116100000D01*
X133914286Y-116128571D01*
X133885715Y-116185714D01*
X133857143Y-116300000D01*
X133857143Y-116442857D01*
X133885715Y-116557143D01*
X133914286Y-116614286D01*
X133942857Y-116642857D01*
X134000000Y-116671429D01*
X134057143Y-116671429D01*
X134114286Y-116642857D01*
X134142857Y-116614286D01*
X134171429Y-116557143D01*
X134200000Y-116442857D01*
X134200000Y-116300000D01*
X134171429Y-116185714D01*
X134142857Y-116128571D01*
X134114286Y-116100000D01*
X134057143Y-116071429D01*
X133428571Y-116871429D02*
X133571428Y-116871429D01*
X133571428Y-116014286D01*
X133428571Y-116014286D01*
X133257143Y-116071429D02*
X132885714Y-116071429D01*
X133085714Y-116300000D01*
X133000000Y-116300000D01*
X132942857Y-116328571D01*
X132914286Y-116357143D01*
X132885714Y-116414286D01*
X132885714Y-116557143D01*
X132914286Y-116614286D01*
X132942857Y-116642857D01*
X133000000Y-116671429D01*
X133171428Y-116671429D01*
X133228571Y-116642857D01*
X133257143Y-116614286D01*
X132685714Y-116871429D02*
X132542857Y-116871429D01*
X132542857Y-116014286D01*
X132685714Y-116014286D01*
X132228571Y-116442857D02*
X131771428Y-116442857D01*
X131142857Y-116671429D02*
X131342857Y-116385714D01*
X131485714Y-116671429D02*
X131485714Y-116071429D01*
X131257142Y-116071429D01*
X131200000Y-116100000D01*
X131171428Y-116128571D01*
X131142857Y-116185714D01*
X131142857Y-116271429D01*
X131171428Y-116328571D01*
X131200000Y-116357143D01*
X131257142Y-116385714D01*
X131485714Y-116385714D01*
X130942857Y-116071429D02*
X130542857Y-116671429D01*
X130542857Y-116071429D02*
X130942857Y-116671429D01*
X130314285Y-116671429D02*
X130314285Y-116071429D01*
X130171428Y-116071429D01*
X130085713Y-116100000D01*
X130028571Y-116157143D01*
X129999999Y-116214286D01*
X129971428Y-116328571D01*
X129971428Y-116414286D01*
X129999999Y-116528571D01*
X130028571Y-116585714D01*
X130085713Y-116642857D01*
X130171428Y-116671429D01*
X130314285Y-116671429D01*
X129599999Y-116071429D02*
X129542856Y-116071429D01*
X129485713Y-116100000D01*
X129457142Y-116128571D01*
X129428571Y-116185714D01*
X129399999Y-116300000D01*
X129399999Y-116442857D01*
X129428571Y-116557143D01*
X129457142Y-116614286D01*
X129485713Y-116642857D01*
X129542856Y-116671429D01*
X129599999Y-116671429D01*
X129657142Y-116642857D01*
X129685713Y-116614286D01*
X129714285Y-116557143D01*
X129742856Y-116442857D01*
X129742856Y-116300000D01*
X129714285Y-116185714D01*
X129685713Y-116128571D01*
X129657142Y-116100000D01*
X129599999Y-116071429D01*
X131450000Y-114183333D02*
X131350000Y-114216667D01*
X131183333Y-114216667D01*
X131116666Y-114183333D01*
X131083333Y-114150000D01*
X131050000Y-114083333D01*
X131050000Y-114016667D01*
X131083333Y-113950000D01*
X131116666Y-113916667D01*
X131183333Y-113883333D01*
X131316666Y-113850000D01*
X131383333Y-113816667D01*
X131416666Y-113783333D01*
X131450000Y-113716667D01*
X131450000Y-113650000D01*
X131416666Y-113583333D01*
X131383333Y-113550000D01*
X131316666Y-113516667D01*
X131150000Y-113516667D01*
X131050000Y-113550000D01*
X130749999Y-114216667D02*
X130749999Y-113516667D01*
X130583333Y-113516667D01*
X130483333Y-113550000D01*
X130416666Y-113616667D01*
X130383333Y-113683333D01*
X130349999Y-113816667D01*
X130349999Y-113916667D01*
X130383333Y-114050000D01*
X130416666Y-114116667D01*
X130483333Y-114183333D01*
X130583333Y-114216667D01*
X130749999Y-114216667D01*
X130083333Y-114016667D02*
X129749999Y-114016667D01*
X130149999Y-114216667D02*
X129916666Y-113516667D01*
X129683333Y-114216667D01*
X131600000Y-111583333D02*
X131500000Y-111616667D01*
X131333333Y-111616667D01*
X131266666Y-111583333D01*
X131233333Y-111550000D01*
X131200000Y-111483333D01*
X131200000Y-111416667D01*
X131233333Y-111350000D01*
X131266666Y-111316667D01*
X131333333Y-111283333D01*
X131466666Y-111250000D01*
X131533333Y-111216667D01*
X131566666Y-111183333D01*
X131600000Y-111116667D01*
X131600000Y-111050000D01*
X131566666Y-110983333D01*
X131533333Y-110950000D01*
X131466666Y-110916667D01*
X131300000Y-110916667D01*
X131200000Y-110950000D01*
X130499999Y-111550000D02*
X130533333Y-111583333D01*
X130633333Y-111616667D01*
X130699999Y-111616667D01*
X130799999Y-111583333D01*
X130866666Y-111516667D01*
X130899999Y-111450000D01*
X130933333Y-111316667D01*
X130933333Y-111216667D01*
X130899999Y-111083333D01*
X130866666Y-111016667D01*
X130799999Y-110950000D01*
X130699999Y-110916667D01*
X130633333Y-110916667D01*
X130533333Y-110950000D01*
X130499999Y-110983333D01*
X130199999Y-111616667D02*
X130199999Y-110916667D01*
X129799999Y-111616667D02*
X130099999Y-111216667D01*
X129799999Y-110916667D02*
X130199999Y-111316667D01*
X131283333Y-109116667D02*
X131283333Y-108416667D01*
X130983334Y-109083333D02*
X130883334Y-109116667D01*
X130716667Y-109116667D01*
X130650000Y-109083333D01*
X130616667Y-109050000D01*
X130583334Y-108983333D01*
X130583334Y-108916667D01*
X130616667Y-108850000D01*
X130650000Y-108816667D01*
X130716667Y-108783333D01*
X130850000Y-108750000D01*
X130916667Y-108716667D01*
X130950000Y-108683333D01*
X130983334Y-108616667D01*
X130983334Y-108550000D01*
X130950000Y-108483333D01*
X130916667Y-108450000D01*
X130850000Y-108416667D01*
X130683334Y-108416667D01*
X130583334Y-108450000D01*
X130283333Y-109116667D02*
X130283333Y-108416667D01*
X130016667Y-108416667D01*
X129950000Y-108450000D01*
X129916667Y-108483333D01*
X129883333Y-108550000D01*
X129883333Y-108650000D01*
X129916667Y-108716667D01*
X129950000Y-108750000D01*
X130016667Y-108783333D01*
X130283333Y-108783333D01*
X131450000Y-108296000D02*
X129750000Y-108296000D01*
X132716666Y-106516667D02*
X132950000Y-106183333D01*
X133116666Y-106516667D02*
X133116666Y-105816667D01*
X132850000Y-105816667D01*
X132783333Y-105850000D01*
X132750000Y-105883333D01*
X132716666Y-105950000D01*
X132716666Y-106050000D01*
X132750000Y-106116667D01*
X132783333Y-106150000D01*
X132850000Y-106183333D01*
X133116666Y-106183333D01*
X132416666Y-106150000D02*
X132183333Y-106150000D01*
X132083333Y-106516667D02*
X132416666Y-106516667D01*
X132416666Y-105816667D01*
X132083333Y-105816667D01*
X131816667Y-106483333D02*
X131716667Y-106516667D01*
X131550000Y-106516667D01*
X131483333Y-106483333D01*
X131450000Y-106450000D01*
X131416667Y-106383333D01*
X131416667Y-106316667D01*
X131450000Y-106250000D01*
X131483333Y-106216667D01*
X131550000Y-106183333D01*
X131683333Y-106150000D01*
X131750000Y-106116667D01*
X131783333Y-106083333D01*
X131816667Y-106016667D01*
X131816667Y-105950000D01*
X131783333Y-105883333D01*
X131750000Y-105850000D01*
X131683333Y-105816667D01*
X131516667Y-105816667D01*
X131416667Y-105850000D01*
X131116666Y-106150000D02*
X130883333Y-106150000D01*
X130783333Y-106516667D02*
X131116666Y-106516667D01*
X131116666Y-105816667D01*
X130783333Y-105816667D01*
X130583333Y-105816667D02*
X130183333Y-105816667D01*
X130383333Y-106516667D02*
X130383333Y-105816667D01*
X133283333Y-105696000D02*
X130116667Y-105696000D01*
X130949999Y-103916667D02*
X130949999Y-103216667D01*
X130549999Y-103916667D01*
X130549999Y-103216667D01*
X129816666Y-103850000D02*
X129850000Y-103883333D01*
X129950000Y-103916667D01*
X130016666Y-103916667D01*
X130116666Y-103883333D01*
X130183333Y-103816667D01*
X130216666Y-103750000D01*
X130250000Y-103616667D01*
X130250000Y-103516667D01*
X130216666Y-103383333D01*
X130183333Y-103316667D01*
X130116666Y-103250000D01*
X130016666Y-103216667D01*
X129950000Y-103216667D01*
X129850000Y-103250000D01*
X129816666Y-103283333D01*
X130949999Y-101416667D02*
X130949999Y-100716667D01*
X130549999Y-101416667D01*
X130549999Y-100716667D01*
X129816666Y-101350000D02*
X129850000Y-101383333D01*
X129950000Y-101416667D01*
X130016666Y-101416667D01*
X130116666Y-101383333D01*
X130183333Y-101316667D01*
X130216666Y-101250000D01*
X130250000Y-101116667D01*
X130250000Y-101016667D01*
X130216666Y-100883333D01*
X130183333Y-100816667D01*
X130116666Y-100750000D01*
X130016666Y-100716667D01*
X129950000Y-100716667D01*
X129850000Y-100750000D01*
X129816666Y-100783333D01*
X131333333Y-98250000D02*
X131399999Y-98216667D01*
X131499999Y-98216667D01*
X131599999Y-98250000D01*
X131666666Y-98316667D01*
X131699999Y-98383333D01*
X131733333Y-98516667D01*
X131733333Y-98616667D01*
X131699999Y-98750000D01*
X131666666Y-98816667D01*
X131599999Y-98883333D01*
X131499999Y-98916667D01*
X131433333Y-98916667D01*
X131333333Y-98883333D01*
X131299999Y-98850000D01*
X131299999Y-98616667D01*
X131433333Y-98616667D01*
X130999999Y-98916667D02*
X130999999Y-98216667D01*
X130599999Y-98916667D01*
X130599999Y-98216667D01*
X130266666Y-98916667D02*
X130266666Y-98216667D01*
X130100000Y-98216667D01*
X130000000Y-98250000D01*
X129933333Y-98316667D01*
X129900000Y-98383333D01*
X129866666Y-98516667D01*
X129866666Y-98616667D01*
X129900000Y-98750000D01*
X129933333Y-98816667D01*
X130000000Y-98883333D01*
X130100000Y-98916667D01*
X130266666Y-98916667D01*
X133566666Y-96416667D02*
X133566666Y-95716667D01*
X133300000Y-95716667D01*
X133233333Y-95750000D01*
X133200000Y-95783333D01*
X133166666Y-95850000D01*
X133166666Y-95950000D01*
X133200000Y-96016667D01*
X133233333Y-96050000D01*
X133300000Y-96083333D01*
X133566666Y-96083333D01*
X132933333Y-95716667D02*
X132766666Y-96416667D01*
X132633333Y-95916667D01*
X132500000Y-96416667D01*
X132333333Y-95716667D01*
X131666666Y-96416667D02*
X131900000Y-96083333D01*
X132066666Y-96416667D02*
X132066666Y-95716667D01*
X131800000Y-95716667D01*
X131733333Y-95750000D01*
X131700000Y-95783333D01*
X131666666Y-95850000D01*
X131666666Y-95950000D01*
X131700000Y-96016667D01*
X131733333Y-96050000D01*
X131800000Y-96083333D01*
X132066666Y-96083333D01*
X131233333Y-95716667D02*
X131100000Y-95716667D01*
X131033333Y-95750000D01*
X130966666Y-95816667D01*
X130933333Y-95950000D01*
X130933333Y-96183333D01*
X130966666Y-96316667D01*
X131033333Y-96383333D01*
X131100000Y-96416667D01*
X131233333Y-96416667D01*
X131300000Y-96383333D01*
X131366666Y-96316667D01*
X131400000Y-96183333D01*
X131400000Y-95950000D01*
X131366666Y-95816667D01*
X131300000Y-95750000D01*
X131233333Y-95716667D01*
X130633333Y-96416667D02*
X130633333Y-95716667D01*
X130233333Y-96416667D01*
X130233333Y-95716667D01*
X130333333Y-93116667D02*
X130666666Y-93116667D01*
X130700000Y-93450000D01*
X130666666Y-93416667D01*
X130600000Y-93383333D01*
X130433333Y-93383333D01*
X130366666Y-93416667D01*
X130333333Y-93450000D01*
X130300000Y-93516667D01*
X130300000Y-93683333D01*
X130333333Y-93750000D01*
X130366666Y-93783333D01*
X130433333Y-93816667D01*
X130600000Y-93816667D01*
X130666666Y-93783333D01*
X130700000Y-93750000D01*
X130099999Y-93116667D02*
X129866666Y-93816667D01*
X129633333Y-93116667D01*
X130849999Y-91316667D02*
X130849999Y-90616667D01*
X130449999Y-91316667D01*
X130449999Y-90616667D01*
X129716666Y-91250000D02*
X129750000Y-91283333D01*
X129850000Y-91316667D01*
X129916666Y-91316667D01*
X130016666Y-91283333D01*
X130083333Y-91216667D01*
X130116666Y-91150000D01*
X130150000Y-91016667D01*
X130150000Y-90916667D01*
X130116666Y-90783333D01*
X130083333Y-90716667D01*
X130016666Y-90650000D01*
X129916666Y-90616667D01*
X129850000Y-90616667D01*
X129750000Y-90650000D01*
X129716666Y-90683333D01*
X130849999Y-88716667D02*
X130849999Y-88016667D01*
X130449999Y-88716667D01*
X130449999Y-88016667D01*
X129716666Y-88650000D02*
X129750000Y-88683333D01*
X129850000Y-88716667D01*
X129916666Y-88716667D01*
X130016666Y-88683333D01*
X130083333Y-88616667D01*
X130116666Y-88550000D01*
X130150000Y-88416667D01*
X130150000Y-88316667D01*
X130116666Y-88183333D01*
X130083333Y-88116667D01*
X130016666Y-88050000D01*
X129916666Y-88016667D01*
X129850000Y-88016667D01*
X129750000Y-88050000D01*
X129716666Y-88083333D01*
X131333333Y-85550000D02*
X131399999Y-85516667D01*
X131499999Y-85516667D01*
X131599999Y-85550000D01*
X131666666Y-85616667D01*
X131699999Y-85683333D01*
X131733333Y-85816667D01*
X131733333Y-85916667D01*
X131699999Y-86050000D01*
X131666666Y-86116667D01*
X131599999Y-86183333D01*
X131499999Y-86216667D01*
X131433333Y-86216667D01*
X131333333Y-86183333D01*
X131299999Y-86150000D01*
X131299999Y-85916667D01*
X131433333Y-85916667D01*
X130999999Y-86216667D02*
X130999999Y-85516667D01*
X130599999Y-86216667D01*
X130599999Y-85516667D01*
X130266666Y-86216667D02*
X130266666Y-85516667D01*
X130100000Y-85516667D01*
X130000000Y-85550000D01*
X129933333Y-85616667D01*
X129900000Y-85683333D01*
X129866666Y-85816667D01*
X129866666Y-85916667D01*
X129900000Y-86050000D01*
X129933333Y-86116667D01*
X130000000Y-86183333D01*
X130100000Y-86216667D01*
X130266666Y-86216667D01*
M02*
